<?xml version="1.0" encoding="utf-8"?>
<svg xmlns="http://www.w3.org/2000/svg" version="1.0" viewBox="0 0 200 30">
	<title>Four cards in a row with four spaces for holes to punched, labelled +, −, × and ÷. The first card has every hole but the fourth unpunched, the second all but the third, the third all but the second, and the fourth all but the first.</title>
	<text font-size="10">
		<tspan x="18" y="8">+</tspan>
		<tspan x="72" y="8">−</tspan>
		<tspan x="124" y="8">×</tspan>
		<tspan x="177" y="8">÷</tspan>
	</text>
	<rect fill="none" height="19" stroke="currentColor" width="39" x="0.5" y="10.5"/>
	<circle cx="8" cy="20" fill="none" r="2" stroke="currentColor"/>
	<circle cx="16" cy="20" fill="none" r="2" stroke="currentColor"/>
	<circle cx="24" cy="20" fill="none" r="2" stroke="currentColor"/>
	<rect fill="none" height="19" stroke="currentColor" width="39" x="53.833" y="10.5"/>
	<circle cx="61.333" cy="20" fill="none" r="2" stroke="currentColor"/>
	<circle cx="69.333" cy="20" fill="none" r="2" stroke="currentColor"/>
	<circle cx="85.333" cy="20" fill="none" r="2" stroke="currentColor"/>
	<rect fill="none" height="19" stroke="currentColor" width="39" x="107.167" y="10.5"/>
	<circle cx="114.667" cy="20" fill="none" r="2" stroke="currentColor"/>
	<circle cx="130.667" cy="20" fill="none" r="2" stroke="currentColor"/>
	<circle cx="138.667" cy="20" fill="none" r="2" stroke="currentColor"/>
	<rect fill="none" height="19" stroke="currentColor" width="39" x="160.5" y="10.5"/>
	<circle cx="176" cy="20" fill="none" r="2" stroke="currentColor"/>
	<circle cx="184" cy="20" fill="none" r="2" stroke="currentColor"/>
	<circle cx="192" cy="20" fill="none" r="2" stroke="currentColor"/>
</svg>
