<?xml version="1.0" encoding="utf-8"?>
<svg xmlns="http://www.w3.org/2000/svg" version="1.0" viewBox="0 0 179 179">
	<title>A diagram demonstrating how two tubes joined by rods will affect the light of a candle from different viewpoints, when placed so as to cover it.</title>
	<text font-size="8">
		<tspan x="0" y="90">A</tspan>
		<tspan x="0" y="28">B</tspan>
		<tspan x="0" y="117">a</tspan>
		<tspan x="0" y="146">b</tspan>
		<tspan x="0" y="178">c</tspan>
	</text>
	<path d="M72.95 176.5c-.57-.97-.62-1.54-.08-1.1.32.27.36-.54.27-5.72-.2-10.98-.49-18.12-.66-16.09-.15 1.73-.16 1.67-.2-1-.03-1.74.05-2.84.22-2.84.14 0 .26-.36.26-.8 0-.48-.11-.75-.26-.65-.15.09-.27-.09-.27-.4 0-.3.1-.5.24-.41.14.09.28-1.52.33-3.78.11-4.7 0-6.98-.33-6.77-.13.08-.24-.13-.24-.47 0-.33-.08-.87-.17-1.2-.11-.44-.04-.6.27-.6.38 0 .43-.5.43-4.1 0-3.47-.06-4.1-.4-4.1-.21 0-.4-.22-.4-.5 0-.29-.3-.62-.72-.8l-.73-.3-.05-3.63c-.04-2.3.03-3.44.18-3.1.13.29.25 1.36.28 2.38.02 1.02.14 2.15.26 2.51.15.43.19.02.11-1.19-.06-1.02-.18-5.6-.26-10.19-.09-4.58-.25-8.8-.35-9.39-.1-.58-.17 2.46-.14 6.75.03 4.3-.03 7.13-.12 6.3-.1-.82-.28-1.6-.4-1.72-.12-.12-.14 2.2-.03 5.14.14 3.92.11 5.36-.1 5.36-.17 0-.3-.27-.3-.6-.02-5.5-.39-17.49-.55-18.19-.13-.53-.16 1.95-.07 5.82l.2 9.83c.03 2.08.15 3.22.38 3.5.55.66.1 1-1.24.9l-1.24-.07-.05 17.2c-.04 9.46-.06 20.82-.07 25.24 0 4.43-.08 7.98-.17 7.9-.17-.18-.3-10.42-.48-34.81-.05-8.49-.14-15.46-.2-15.5-.04-.04-1.22-.27-2.61-.53-1.4-.25-2.7-.57-2.9-.7-.3-.18-.37-2-.38-10.62-.01-6.46.08-10.42.24-10.45.76-.14.87-2.34.14-2.73-.52-.28-.53-.56-.53-12.04 0-6.54.1-11.8.24-11.89.4-.25.52 2.4.54 12.93.02 5.67.06 10.33.1 10.37a56 56 0 0 0 3.5.51c3.75.49 9.34.39 12.55-.22l1.72-.33V87.4c0-6.72-.06-12.28-.14-12.36-.08-.08-.73.03-1.43.24-1.75.53-8.25 1-10.86.79-1.17-.1-2.79-.33-3.6-.53-.82-.2-1.74-.3-2.05-.22-.49.13-.57.04-.57-.65 0-.78.03-.8 1.04-.66.93.12 1.04.07 1.15-.49.11-.58.12-.57.16.1.02.4.15.73.29.73.14 0 .29-.92.34-2.05l.09-2.05.05 2.18c.06 2.4.56 3.04.63.8l.04-1.4.16 1.44c.14 1.37.2 1.46 1.04 1.67 1.18.3 1.56.13 1.7-.77.1-.72.11-.71.15.11.02.47.17.86.33.86.2 0 .24-1.92.13-6.47-.09-4.09-.05-6.53.12-6.63.15-.1.25.25.25.83 0 .54.09.9.19.8.1-.1.15-3.52.12-7.59-.05-5.1.01-7.4.2-7.4.2 0 .29 1.62.29 4.9 0 3.08.1 4.9.26 4.9.15 0 .27-.42.27-.93 0-.52.13-.93.3-.93.22 0 .26.67.13 2.42a71.3 71.3 0 0 0-.17 3.2c0 .42-.1.7-.24.61-.13-.08-.18-.35-.12-.61.07-.26 0-.76-.14-1.12-.2-.5-.27.33-.31 3.17-.05 3.62-.06 3.73-.28 1.88a9.5 9.5 0 0 0-.39-2.12c-.09-.08-.12 2.38-.07 5.47.05 3.09.17 5.62.27 5.62.37 0 .47-.92.34-3.37-.08-1.73-.04-2.4.12-2.05.14.29.26 1.64.27 2.99.02 1.51.12 2.4.28 2.3.15-.09.2-1.56.14-3.65-.08-2.47-.04-3.15.12-2.3.13.65.26 2.26.29 3.57.02 1.3.1 2.14.17 1.85.2-.78.6-1.13.61-.52 0 .4.06.44.24.16.13-.2.36-.29.52-.19.17.1.3.07.3-.07 0-.15.07-.48.15-.75.14-.45.13-.45-.15-.02-.57.9-.81.47-.77-1.32.04-1.5.43-3.55.49-2.52 0 .19.18.34.39.34.2 0 .43.14.5.33.08.18.14-.09.14-.6 0-.75-.04-.82-.22-.4-.13.3-.25.41-.27.27-.22-1.62-.22-1.99-.01-1.99.13 0 .3.27.36.6.08.43.12.37.15-.26.02-.65-.06-.81-.36-.7-.34.13-.4-.2-.43-1.92-.02-1.15-.09-1.84-.15-1.55-.27 1.2-.36 1.34-.63.92-.16-.26-.24.7-.25 2.72 0 2.04-.1 3.1-.28 3.1-.17 0-.27-.43-.24-.99.02-.54.03-1.52.02-2.16-.03-1.1-.06-1.14-.42-.67-.35.47-.39.37-.4-1.19 0-1.78.41-1.99.58-.28.05.51.09-4.43.1-10.98 0-6.55-.03-8.8-.08-5.02a96.06 96.06 0 0 1-.23 7.27c-.43 1.08-.67-1.35-.6-6.22.06-5.66-.28-18.96-.5-19.18-.07-.07-.04 3.83.06 8.67.14 6.32.1 8.8-.1 8.8s-.3-1.31-.33-4.04a418.63 418.63 0 0 0-.2-9.86c-.06-2.52-.14-3.19-.3-2.51-.12.5-.16 1.94-.1 3.18.27 5.06.32 13.5.09 13.63-.14.09-.25-.51-.25-1.38 0-.85-.04-2.97-.1-4.71-.06-1.75-.12-5.13-.13-7.5-.03-3.63-.1-4.31-.4-4.2a.4.4 0 0 1-.53-.23c-.09-.24-.52-.38-1.18-.38-1.23 0-1.4.36-1.17 2.53.1.99.05 1.44-.15 1.44s-.3-.7-.3-2.12c0-2.42-.46-2.87-.6-.6l-.1 1.53-.05-1.53c-.04-1.38-.11-1.55-.73-1.79-.38-.14-.82-.17-.98-.08-.18.12-.1.26.22.38.49.17.49.2.04.38-.26.1-.53.13-.6.06-.29-.28-.38-1.94-.14-2.3.22-.34.32-.34.74.03.79.7 5.44 1.11 10.27.92 5.07-.2 6.8-.4 6.67-.8-.22-.65-3.27-.96-9.32-.94-3.35 0-6.2 0-6.35-.04-.84-.17 6.58-.62 7.67-.47.73.1 2.79.2 4.58.2 2.37.02 3.47.14 4.04.43.72.37.78.52.78 1.85 0 .8-.12 1.45-.27 1.45-.14 0-.26.61-.26 1.36 0 1.14.06 1.3.37 1.04.32-.26.41-.12.55.83.09.62.05 1.97-.08 2.99l-.25 1.85-.06-1.85c-.1-3-.48-3.55-.5-.74-.02 1.44.08 2.5.24 2.6.2.12.19.28-.02.53-.16.2-.25.69-.19 1.1l.1.74.28-.65c.27-.65.28-.65.45-.1.3.95.08 60.91-.23 60.86-.27-.05-.29.39-.19 3.66.04 1.24.16 1.72.41 1.72.43 0 .61 3.16.69 11.82l.05 5.6-1.01.29c-.56.15-1.72.4-2.6.56-.87.16-1.88.37-2.25.47l-.66.19-.02 25.13c-.01 13.82-.04 25.45-.07 25.85-.05.94-.34.93-.9-.04zm-.27-26.15c-.07-.25-.13-.1-.13.33 0 .44.05.65.12.47.07-.18.08-.54 0-.8zm0-14.93c-.09-.21-.15-.15-.16.16-.02.28.05.43.14.34.08-.08.1-.31.02-.5zm-4.92-16.4c-.33-6.34-.34-15.1 0-14.9.13.09.25 2.08.26 4.44 0 2.36.12 4.52.24 4.81.14.32.21-2.06.18-5.75-.02-3.46-.1-6.28-.15-6.28-.06 0-.26.2-.45.46-.33.43-.36.43-.36 0 0-.29-.15-.4-.4-.3-.23.09-.4.04-.4-.1s-.36-.26-.8-.27c-.44-.01-.8.11-.8.27 0 .17-.15.08-.35-.19-.25-.34-.41-.4-.55-.18-.1.17-.3.25-.43.16-.15-.09-.25 1.16-.25 3.1 0 3.49-.18 4.75-.56 4.15-.16-.25-.23-.14-.23.34 0 .39.16.76.35.84.2.07.45.53.56 1.02.17.78.22.82.41.35.14-.32.23 1.1.24 3.6.01 2.27.1 4.86.2 5.76.1 1.08.07 1.62-.12 1.62-.16 0-.34-.2-.4-.46-.07-.26-.13.2-.14 1-.01 1.11.04 1.31.23.85.13-.33.3-.6.4-.6.08 0 .08.13-.01.27-.3.46.13.85.55.51.3-.24.37-.22.37.1 0 .43 1.32.51 1.62.1.1-.14.13-1.27.08-2.53-.06-1.55-.02-2.02.13-1.49.13.44.24 1.58.26 2.54.02 1.58.2 2.28.49 1.99.06-.06-.02-2.41-.17-5.23zm-1.83-1.15c0-.43.07-.58.13-.32.07.25.07.61 0 .79-.08.18-.13-.03-.13-.47zm1.06-.8c0-1.34.03-1.45.21-.7.12.49.11 1.2 0 1.59-.16.54-.21.32-.21-.88zm-.16-2.18c-.22-.68-.08-4.31.17-4.46.11-.07.2 1 .2 2.4 0 2.5-.08 2.97-.37 2.06zm-3.07-6.53c0-1.08.12-2.04.27-2.13.17-.1.26.61.26 1.97 0 1.24-.1 2.13-.26 2.13-.15 0-.27-.83-.27-1.97zm1.08 1.29c.02-.31.08-.37.16-.16.08.19.07.42-.02.5-.09.1-.15-.06-.14-.34zm1.99-1.06c-.1-.39-.12-.76-.05-.83.07-.08.21.18.31.57.1.39.12.76.04.84-.07.07-.2-.19-.3-.58zm-.9-4.21c0-.44.07-.58.13-.33.07.26.07.62 0 .8-.08.18-.13-.04-.13-.47zm2.7 14.99c-.09-2.57-.29-4.8-.43-4.94-.18-.17-.21.18-.1 1.06.09.73.17 3.02.18 5.1.01 2.4.11 3.72.28 3.61.16-.1.2-1.86.08-4.83zm-5.4 3.38c0-.47-.1-.74-.26-.64-.16.1-.25-.28-.24-.98.02-.96.06-1.04.24-.48.16.49.22.53.24.17.02-.32.16-.44.42-.34.3.12.4-.06.4-.75 0-1.01-.51-1.57-.57-.62-.03.6-.04.59-.16-.05-.12-.61-.15-.62-.34-.13-.16.4-.22.24-.24-.61 0-.63-.12-1.07-.26-.99-.13.08-.22 1.07-.18 2.2.04 1.12-.02 2.4-.12 2.84l-.2.8-.02-.88c-.02-.51-.14-.8-.3-.71-.14.09-.26-.02-.26-.24s.13-.48.3-.58c.2-.13.2-.23 0-.35-.16-.1-.33-.69-.39-1.3-.2-2.15-.44-1.44-.44 1.26 0 2.3.06 2.7.4 2.57.22-.09.4-.05.4.08s.32.29.72.35c.4.06.76.13.8.15.03.02.06-.32.06-.77zm16.38-4.07c-.14-.15-.22.62-.2 1.85l.04 2.1.2-1.85c.1-1.02.09-1.96-.04-2.1zm-17.77-.61c-.06-.4-.11-.07-.11.73s.05 1.13.1.73c.07-.4.07-1.06 0-1.46zm10.05-.52c-.07-.26-.13-.11-.14.32 0 .44.05.65.13.47.07-.18.07-.54 0-.8zm8.01-3.2c0-1.7-.12-3.27-.26-3.49-.2-.3-.26-.24-.26.33 0 .4-.12.73-.27.73-.15 0-.25.39-.23.86l.03.86.2-.8c.13-.52.21.18.23 2.07.02 1.83.13 2.8.3 2.7.15-.1.26-1.48.26-3.26zm-15.89 2.93c-.01-.11-.12-.44-.25-.73-.2-.47-.23-.45-.24.2-.01.4.1.73.24.73.15 0 .26-.1.25-.2zm-1.3-4.83c.15 0 .26-.17.26-.37 0-.46-.78-.8-.82-.35-.01.18-.12.02-.24-.34l-.21-.66-.03.71c-.01.4.1.79.24.88.15.09.3 1.13.32 2.33l.05 2.16.1-2.18c.04-1.2.2-2.18.34-2.18zm-.82 2.97c-.01-.8-.06-.89-.25-.46-.18.4-.24.26-.24-.66 0-.98-.17-5.22-.26-6.56-.01-.2-.15-.27-.3-.17-.2.12-.24 1.43-.13 4.16.14 3.32.24 4.04.62 4.33.25.19.48.34.52.35.03 0 .05-.44.04-.99zm10-3.03c-.05-.77-.1-.2-.1 1.25s.05 2.08.1 1.4c.06-.69.06-1.88 0-2.65zm-9 1.05c-.08-.18-.14-.03-.14.33s.06.51.13.33.07-.48 0-.66zm.78-.26c-.07-.19-.13-.04-.13.33 0 .36.06.5.13.33.08-.18.08-.48 0-.66zm6.62-1.33c-.08-.32-.17-1.67-.2-3a25.72 25.72 0 0 0-.26-3.43c-.13-.63-.16.37-.08 2.53.08 1.96.2 3.78.27 4.03.2.69.44.57.27-.13zm1.34-3.44c-.06-.47-.1-.08-.1.86 0 .95.04 1.34.1.86.06-.47.06-1.24 0-1.72zm7.93 1.34c-.09-.2-.15-.15-.16.16-.02.28.05.44.13.35.1-.09.1-.32.03-.5zm-.8-2.4c-.08-.18-.14-.03-.14.34 0 .36.06.5.14.33.07-.19.07-.48 0-.67zm-9.78-5.15c-.06-.4-.1-.08-.1.72 0 .8.04 1.13.1.73.06-.4.06-1.05 0-1.45zm.79 1.2c-.09-.2-.15-.15-.16.16-.02.28.05.44.13.35.1-.09.1-.32.03-.5zm-6.8-.74c0-.15-.05-.27-.12-.27-.06 0-.19.12-.28.27-.09.14-.03.26.12.26s.28-.12.28-.26zm9.34-.53c-.08-.3-.19-.53-.24-.53-.06 0-.1.24-.1.53 0 .29.1.53.24.53.13 0 .17-.24.1-.53zm7-38.03c-.02-5.07-.13-8.48-.24-7.88-.21 1.08-.25 16.24-.04 16.6.06.12.16.2.21.2.06 0 .09-4.01.07-8.92zm-6.93 7.4c-.28-.29-.4.1-.21.74l.18.65.1-.62c.05-.34.02-.68-.07-.77zm-.23-8.84c-.09-.21-.15-.15-.16.16-.01.28.05.43.14.34.08-.08.1-.31.02-.5zm-1.49-2.73c-.05-2.17-.03-2.25.54-2.25.32 0 .5-.09.4-.2a.82.82 0 0 0-.52-.2c-.22 0-.34-1.98-.44-7.27l-.13-7.28-.13 9.4c-.08 5.16-.1 9.6-.04 9.86.23 1.04.38.08.32-2.06zm.69 1.12c-.08-.18-.14-.03-.14.33 0 .37.06.52.14.33.07-.18.07-.48 0-.66zm-2.64-1.71c-.07-.26-.13-.11-.13.32 0 .44.05.65.12.47.07-.18.08-.53.01-.8zm2.65-.8c-.07-.25-.13-.1-.14.33 0 .44.05.65.13.47.07-.18.07-.54 0-.8zm0-3.3c-.1-.2-.15-.14-.17.17 0 .28.05.43.14.35.09-.1.1-.32.02-.51zm7.88-2.43c0-.93-.09-1.56-.2-1.39-.25.4-.25 3.08 0 3.08.11 0 .2-.76.2-1.69zm-7.88-2.2c-.07-.26-.13-.11-.14.32 0 .44.05.65.13.47.07-.18.07-.54 0-.8zm7.94-3.18c-.06-.4-.11-.14-.11.6 0 .72.04 1.05.1.72.07-.32.07-.92.01-1.32zm-8.66-6.55c0-.66-.09-1.2-.2-1.2-.1 0-.16.54-.1 1.2.05.65.14 1.19.2 1.19s.1-.54.1-1.2zm-.94-3.22a32.87 32.87 0 0 0-.24-4.01c-.2-.2-.17 5.2.03 6.66.1.68.2 1.23.24 1.23.04 0 .03-1.75-.03-3.88zm.6-1.08c-.07-.25-.13-.1-.13.33-.01.44.04.65.12.47.07-.18.07-.54 0-.8zm1.58-5.03c-.06-.25-.12-.04-.12.46 0 .51.06.72.12.47.07-.26.07-.67 0-.93zm-2.64.41c-.09-.2-.15-.14-.16.16-.02.28.05.44.14.35.08-.09.1-.31.02-.5zm1.85 0c-.09-.2-.15-.14-.16.16-.01.28.05.44.14.35.09-.09.1-.31.02-.5zm42.33 144.6c-.1-.1-.18-5.92-.18-12.95v-12.77l-1-.15c-.54-.08-1.88-.35-2.97-.6-1.93-.46-1.98-.49-2.07-1.33-.06-.7.01-.86.45-.86.28 0 .57.15.64.33.07.18.2-.08.3-.6.1-.5.07-1.22-.08-1.58-.2-.5-.27-.54-.28-.18-.01.31-.18.45-.48.4-.41-.08-.47-.52-.54-3.93-.1-4.54.08-6.25.6-5.83.25.22.38.19.5-.13.24-.62.22-.65-.36-.65-.4 0-.53-.18-.53-.69 0-.5.1-.65.4-.54.33.13.4-.25.4-2.48 0-2.17-.08-2.64-.4-2.64-.25 0-.4-.25-.4-.69 0-.5.1-.65.4-.54.31.12.4-.07.4-.92 0-.85.08-1.05.4-.93.26.1.39-.01.39-.37 0-.28-.15-.49-.33-.45-.21.04-.32-.2-.29-.64.04-.5-.1-.74-.46-.83-.4-.1-.51-.37-.51-1.22 0-.6.12-1.08.26-1.08.15 0 .27.35.27.78 0 .42.12.85.27.94.46.29 4.8.92 6.28.92h1.39v-1.04a5.9 5.9 0 0 0-.25-1.7c-.22-.57-.18-.68.33-.77.5-.1.45-.14-.26-.31-.47-.11-.9-.36-.98-.56-.09-.22 0-.3.24-.2.27.1.2-.3-.28-1.47a8.65 8.65 0 0 1-.66-2.95c0-.83-.1-1.28-.26-1.18-.15.1-.26-.14-.26-.54 0-.5.1-.67.37-.56.41.15.88-1.29 1.14-3.48.11-1.02.16-1.09.48-.66.34.45.27 1.48-.13 2.06-.42.6-.82 3.3-.75 5.03.06 1.43.22 2.05.7 2.72.5.71.69.82 1 .56.21-.18.28-.4.16-.48-.12-.08-.23-.84-.24-1.67l-.02-1.51.43.83c.24.46.6.92.82 1.02l1.13.53c.83.38 1 .9.21.65-.35-.11-.6 0-.79.36-.4.73-.36.8.31.63 1.03-.25 1.53-.87 1.5-1.9 0-.52-.08-.8-.15-.62-.3.75-.63.28-.46-.66.22-1.2.33-1.35.65-.85.18.3.24.22.25-.32 0-.4-.17-.82-.39-.94-.2-.11-.44-.63-.5-1.13-.07-.51-.58-1.76-1.14-2.78-.93-1.71-1-2-.99-3.9.01-1.13-.05-2.05-.15-2.05-.1 0-.44.48-.78 1.08-.33.59-.66 1.01-.73.94-.17-.16.38-1.19 1.12-2.08.33-.4.65-.87.72-1.05.25-.72.54.11.63 1.83.13 2.25.44 3.21 1.47 4.49.99 1.22 1.94 3.26 1.63 3.49-.13.09-.23 1.26-.24 2.6 0 2.13.03 2.35.31 1.72.39-.87.45-.5.12.67-.28.97-2.04 3.24-2.51 3.24-.17 0-.33.21-.36.47-.03.25-.12.9-.21 1.43l-.17.97 2.04.09c1.12.05 2.09 0 2.16-.11.06-.11.35-.2.63-.2s.5.09.48.2c-.08.52.07.63.44.32.29-.24.32-.4.12-.52-.16-.1.25-.34.92-.53.93-.26 1.25-.49 1.37-1 .2-.78-.1-20.9-.34-22.37-.15-.94-.2-1-.85-.82-1.82.48-3.07.65-6.26.8-3.23.16-5.45-.03-10.12-.86l-.86-.15-.02 1.42c-.08 3.68 0 8.33.16 9.86.2 1.75-.01 3.03-.42 2.62-.13-.13-.32-4.86-.42-10.52l-.18-10.28.58.14c.45.12.58.03.6-.42.02-.31.13.03.25.75.16.94.13 1.37-.1 1.52-.23.15-.21.27.08.47.35.23.35.3.02.5-.2.14-.42.79-.48 1.44-.08.98-.01 1.2.38 1.29a.9.9 0 0 0 .8-.3c.28-.36.33-.33.33.18 0 .33.16.6.34.62.18 0 .6.05.94.09.33.03.72-.13.85-.36.2-.34.25-.31.26.18 0 .63.38.8.68.3.13-.2.24-.2.39.04.38.62.79-.05.79-1.34 0-1.08.07-1.27.42-1.14.38.15.4-.09.23-2.12-.13-1.63-.1-2.29.1-2.29s.3.61.3 1.65c0 .91.08 2.46.18 3.44.12 1.27.08 1.79-.14 1.79-.17 0-.31-.48-.33-1.12-.03-1.06-.05-1.08-.24-.34-.37 1.48-.31 1.72.44 1.72h.7l-.17-4.22c-.15-3.7-.12-4.2.22-4.07.41.15.53-1.23.4-4.77-.02-.7.06-1.22.19-1.14.12.08.26 1.9.3 4.06.05 2.58-.01 3.84-.18 3.66a2.1 2.1 0 0 1-.37-.92c-.07-.37-.06 1.11.02 3.28.1 3.4.2 4.01.62 4.44.46.46.53.46.93.07.32-.33.35-.48.11-.63-.42-.26-.55-2.92-.72-14.84-.14-9.13-.5-17.7-.6-13.82-.02.9-.14 1.65-.28 1.65s-.25-1.6-.25-3.7c0-2.04.1-3.7.23-3.7s.28.62.34 1.38c.05.77.1-.57.11-2.97.01-2.4-.04-4.13-.1-3.84-.3 1.2-.61.97-.61-.46 0-.82-.1-1.56-.24-1.64-.14-.08-.19 2.48-.12 6.14.06 3.45.11 8.22.11 10.59 0 2.58.1 4.24.25 4.15.14-.08.21-1.34.17-2.78-.04-1.45.02-2.64.14-2.64.51 0 .3 5.6-.22 5.9-.3.18-.35 1.16-.23 5.83.08 3.47.04 5.75-.12 6-.3.46-.4-2.17-.32-8.43.06-3.87.04-4.06-.47-4.2-.5-.12-.54-.35-.55-2.81 0-1.48-.04-3.1-.08-3.61-.04-.51-.1-2.5-.13-4.43-.04-3.05-.1-3.47-.46-3.33-.34.13-.4-.03-.33-.87.05-.62.21-1 .4-.97.22.04.34-.75.4-2.71.04-1.53-.01-2.77-.12-2.77-.22 0-.33 1.8-.24 3.83.05.97-.01 1.22-.2.93a8.33 8.33 0 0 1-.28-2.58c0-1.74-.09-2.18-.4-2.18-.23 0-.33.15-.24.38.08.21.05.54-.07.73-.15.23-.26.1-.35-.44-.11-.63-.28-.8-.8-.8-.65 0-.66.06-.81 2.51a12.87 12.87 0 0 1-.2 2.18c-.07-.5-.57-.4-.62.13-.02.26-.12-.07-.22-.72l-.19-1.2-.04 1.13c-.04 1.3-.56 1.54-.58.26-.02-.7-.06-.76-.24-.33-.2.5-.22.5-.38-.13-.23-.93-.02-2.74.34-2.85.55-.19.3-.98-.5-1.51-.85-.57-1.01-1.21-.43-1.7.28-.23.4-.22.51.07.08.2.78.53 1.55.73 1.87.47 13.08.47 14.7 0 1.11-.3 1.4-.63.87-.96-.15-.09-.27-.27-.27-.4 0-.37 1.16-.32 1.54.06.4.4.41 1.92.02 2.65-.24.45-.22.62.13.88s.46 1.05.6 4.35c.16 4.3-.07 7.96-.45 7.02-.12-.3-.22 1.57-.23 4.28-.01 2.9-.12 4.88-.28 4.98-.37.22-.34 1.19.03 1.19.28 0 .27.6-.08 4.9-.02.28.06.73.17 1 .14.3.07.58-.2.79-.28.22-.36.6-.26 1.24.13.77.18.84.35.4.1-.29.2 1.53.21 4.04 0 2.71-.09 4.56-.24 4.56-.14 0-.25.18-.25.4 0 .22.12.4.27.4.14 0 .26.3.26.68 0 .5.1.65.4.54.22-.08.4-.13.42-.1.02.04.08 6.1.14 13.5.08 10.6.03 13.42-.23 13.42s-.34 1.5-.35 6.53c-.02 4.75-.1 6.56-.33 6.64-.17.06-.3.54-.3 1.07.02.79.07.87.25.44.23-.53.38 3.6.27 7.3-.03 1.3.06 1.86.37 2.17.23.23.42.66.42.96 0 .64-1.75 1.24-4.38 1.51-1.47.15-1.68.25-1.82.8-.1.35-.16 5.97-.16 12.5 0 9.38-.08 11.96-.36 12.34-.19.26-.48.39-.65.28-.38-.23-.4-1.12-.02-1.36.37-.23.05-17.83-.33-18.3-.14-.17-.31-1.52-.37-2.99a21.67 21.67 0 0 0-.22-2.87c-.07-.1-1.23-.18-2.59-.18l-2.46.01.12 2.78c.06 1.53.1 4.33.1 6.22l-.07 9.2c-.02 3.18.04 6.19.13 6.69.16.84-.07 1.17-.5.74zm1.4-28.06c0-.33-.11-.6-.26-.6-.14 0-.26.45-.26 1 0 .73.07.88.26.59.14-.22.26-.67.26-1zm-2.95-.66c-.02-.55.04-1.08.14-1.17.1-.1.17.5.17 1.32 0 1.51.28 1.89.78 1.04.25-.44.27-.44.27.02 0 .27.16.43.34.37.26-.08.31-1.9.25-8.16-.05-5.26 0-7.95.18-7.78.14.15.3.62.37 1.06.06.44.13-1.5.15-4.3.03-3.24-.05-5.1-.22-5.1-.16 0-.28 1.55-.3 4.04-.03 3.18-.08 3.68-.23 2.35-.1-.92-.15-2.8-.1-4.16.08-2.4.06-2.49-.5-2.52-.33-.02-.71 0-.86.04a8.2 8.2 0 0 1-1.12.1l-.86.02v4.58c0 3.75.07 4.6.39 4.72.3.12.39 1 .43 4.69.03 2.5.08 4.95.12 5.46.03.51.08 1.88.1 3.05.02 1.46.1 1.99.28 1.71.14-.21.24-.84.22-1.38zm1.13-1.94c.01-.31.07-.38.16-.16.07.19.06.42-.02.5-.1.1-.15-.07-.14-.34zm-1.31-6.53c-.03-3.55.05-5.22.22-4.96.3.47.33 10.32.03 10.32-.12 0-.23-2.41-.25-5.36zm1.02 3.77c0-.3.12-.53.27-.53.14 0 .26.24.26.53 0 .3-.12.53-.26.53-.15 0-.27-.24-.27-.53zm.02-4.65c.02-.31.08-.37.16-.16.08.19.07.42-.02.5-.09.1-.15-.06-.14-.34zm.15-1.13c-.12-.33-.15-.68-.06-.77.27-.27.47.13.37.77l-.1.62zm-.05-2.71c-.1-.16-.05-.42.12-.58.21-.22.3-.14.3.29 0 .63-.15.73-.42.29zm-.1-2.51c.02-.31.08-.37.16-.16.08.19.07.42-.02.5-.09.1-.15-.06-.14-.34zm.08-4.35c0-1.38.04-1.94.1-1.25.05.69.05 1.82 0 2.51-.06.7-.1.13-.1-1.26zm2.74 19.92c-.06-.4-.11-.14-.12.59 0 .73.05 1.06.11.73.07-.33.07-.92 0-1.32zm.72-10.46c-.15-11.84-.17-12.24-.67-12.32-.28-.05-.57.07-.64.27-.07.19-.02 2.13.1 4.31l.22 3.97.04-3.1c.02-1.72.15-3.16.3-3.25.18-.1.29 1.98.33 6a2265.1 2265.1 0 0 0 .17 14.04c.02 1.28.09 2.32.16 2.32s.07-5.5-.01-12.24zm-.72-11.2c-.1-.11-.2-.38-.2-.6 0-.3.09-.33.3-.11.16.16.25.43.2.6-.06.16-.2.21-.3.1zm1.64 20c-.16-1.94-.16-1.93-.17.8-.01 1.53.06 2.42.16 1.98.1-.44.1-1.69.01-2.78zm.72 2.58c-.07-.18-.13-.03-.13.33s.06.51.13.33c.08-.18.08-.48 0-.66zm-7.1-.66c-.03-1.07-.05-1.12-.14-.33-.06.5-.22 1.04-.36 1.17-.15.16-.25-1.31-.26-3.83-.01-3.6-.36-7.46-.5-5.54-.1 1.32 0 5.45.15 6.54.1.68.06 1.13-.1 1.13-.15 0-.35-.78-.45-1.74-.28-2.57-.43-1.9-.23.97.1 1.37.23 2.34.29 2.16.06-.18.23-.33.38-.33s.2.16.13.37c-.18.46.03.68.65.68.41 0 .48-.2.45-1.25zm7.11-.38c-.08-.21-.15-.15-.16.16-.01.28.05.43.14.35.09-.1.1-.32.02-.51zm-3.3-2.63l-.25-1.95-.04 2.23c-.02 1.57.05 2.16.25 1.96.19-.2.2-.9.03-2.24zm-3.83-1.1c-.06-.47-.11-.08-.11.87 0 .94.05 1.33.1.86.07-.48.07-1.25 0-1.72zm7.14 1.07c-.07-.33-.12-.12-.12.46 0 .58.04.85.11.6.07-.26.07-.73 0-1.06zm-2.37-2.39c-.1-.56-.12-.55-.32.14-.11.4-.11.93 0 1.19.19.4.22.39.32-.14.05-.32.05-.86 0-1.19zm1.57-.12c-.07-.26-.13-.11-.13.32 0 .44.05.65.12.47.07-.18.08-.54 0-.8zm-6.4-2.33c-.1-1.4-.25-2.48-.32-2.41-.07.07-.05 1.28.06 2.68.1 1.4.25 2.48.32 2.4.07-.07.05-1.27-.06-2.67zm-1.72.92c0-.45-.11-.74-.25-.66-.14.09-.3-.35-.35-.97-.09-.94-.11-.86-.15.45-.03 1.11.04 1.47.22 1.2.2-.33.26-.29.26.2 0 .32.06.59.14.59.07 0 .13-.37.13-.81zm6.39-2.5c-.2-1.58-.24-1.67-.27-.66-.03 1.32.29 3.53.42 2.9.05-.21-.02-1.22-.15-2.24zm-.91-.6c-.06-.4-.11-.07-.11.73s.05 1.13.1.73c.07-.4.07-1.06 0-1.46zm5.02.42c-.09-.21-.15-.15-.16.16-.01.28.05.43.14.34.08-.08.1-.31.02-.5zm-9.5-2.45c.03-1.3-.05-2.3-.2-2.4-.18-.1-.27.69-.27 2.24 0 1.31.09 2.4.2 2.4.1 0 .22-1.01.26-2.24zm7.12.05c-.06-.33-.12-.12-.12.46 0 .58.05.85.12.6.06-.25.07-.73 0-1.06zm.78-.26c-.07-.19-.13-.04-.13.33 0 .36.06.5.13.33.08-.19.08-.48 0-.66zm-7.4-.8c-.08-.18-.14-.03-.14.33 0 .37.06.51.14.33.07-.18.07-.48 0-.66zm-1.59-1.3c-.08-.22-.14-.15-.16.15 0 .28.06.44.14.35.1-.09.1-.31.02-.5zm.85-7.9c-.09-.65-.16.72-.15 3.05 0 4.16.01 4.18.16 1.19a32.7 32.7 0 0 0 0-4.23zm8.23 5.39c0-.97-.05-1.71-.12-1.65-.24.24-.34 3.41-.11 3.41.13 0 .23-.8.23-1.76zm-1.13.11c-.07-.33-.12-.12-.12.46 0 .58.05.85.11.6.07-.25.07-.73 0-1.06zm1.85-.13c-.07-.26-.13-.11-.14.33 0 .43.05.64.13.46.07-.18.07-.53 0-.79zm7.14-1.2c-.06-.32-.11-.11-.12.47 0 .58.05.85.12.6.06-.26.07-.73 0-1.06zm-16.94.55c-.08-.21-.14-.15-.16.16 0 .28.06.44.14.35.1-.1.1-.32.02-.51zm9-2.66c-.08-.18-.14-.04-.14.33 0 .36.06.51.13.33.08-.18.08-.48 0-.66zm1.01-2.58c.09-.15-.03-.27-.27-.27-.23 0-.35.12-.26.27.09.14.2.26.26.26s.18-.12.27-.26zm-.9-28.32c.12-.08 0-.35-.3-.6-.5-.42-.52-.42-.52.15 0 .32.1.89.2 1.25l.19.66.1-.66c.05-.36.2-.73.32-.8zm-.56-3.45c0-.59-.1-1.01-.2-.94-.21.13-.11 2.02.1 2.02.06 0 .1-.49.1-1.08zm1.5-1.35c-.08-.22-.14-.15-.15.16-.01.27.05.43.14.34.09-.09.1-.31.02-.5zm-1.77-2.45c-.16-.17-.25.11-.23.79.02 1.03.02 1.03.26.26.14-.5.13-.89-.03-1.05zm.11-2.47c-.17-1.8-.26-2.11-.5-1.88-.21.22.2 3.67.45 3.67.12 0 .15-.8.05-1.79zm-.18-4.23c-.06-.4-.1-.07-.1.73s.04 1.13.1.73c.07-.4.07-1.06 0-1.46zm1.58-2.23c-.08-.21-.14-.15-.16.16 0 .28.05.43.14.35.09-.1.1-.32.02-.51zm-4.04-8.02c-.08-1.31-.17-4.01-.2-6-.03-2-.14-3.71-.24-3.82-.25-.24-.25 5.46-.01 10.48.14 2.9.23 3.58.39 2.78.1-.58.14-2.13.06-3.44zm2.46 2.05c-.07-.26-.12-.05-.12.46s.05.72.12.46c.06-.25.06-.67 0-.92zm.79.41c-.08-.2-.15-.15-.16.16-.01.28.05.44.14.35.09-.09.1-.32.02-.5zm-1.06-9.94c-.06-.25-.12-.04-.12.47 0 .5.06.71.12.46.07-.25.07-.67 0-.93zm9.35-.33c0-.14-.13-.26-.28-.26-.16 0-.21.12-.12.26.09.15.21.27.28.27.06 0 .12-.12.12-.27zm-9.35-2.31c-.06-.26-.12-.05-.12.46s.06.72.12.46c.07-.25.07-.67 0-.92zm9.07-2.97c-.16-.27-.23.03-.22.92.02 1.27.03 1.29.24.4.12-.51.1-1.1-.02-1.32zm-11.47-.9a8.98 8.98 0 0 0-.23-2.44c-.1-.1-.2.96-.2 2.38 0 1.41.1 2.5.23 2.43.12-.07.21-1.14.2-2.37zm2.4.31c-.08-.2-.15-.15-.16.16-.01.28.05.44.14.35.09-.09.1-.32.02-.5zm-7.06-.62c0-.21-.12-.39-.26-.39-.15 0-.27.25-.27.55 0 .3.12.47.27.38.14-.09.26-.34.26-.54zm6.35-.97c0-.61-.08-.77-.29-.55-.16.16-.21.54-.11.84.25.8.4.69.4-.29zm.8-.36c0-.22-.13-.34-.27-.24-.15.09-.2.27-.12.4.23.38.39.3.39-.16zm-7.23-.88c-.04-.59-.18-.76-.65-.76-.48 0-.6.15-.6.82 0 .77.03.78.4.3.37-.5.39-.5.4.09 0 .34.12.54.26.45.13-.08.22-.49.2-.9zm7.36-.03c.09-.14-.02-.26-.25-.26s-.41.12-.41.26c0 .15.1.27.24.27.14 0 .33-.12.42-.27zM16.32 176.28c-.06-.11-.13-12.01-.16-26.45-.04-26.1-.04-26.25.5-26.79.3-.3.83-.54 1.18-.54 1.04 0 1.05-.48.03-1.09-1.16-.68-2.02-2.02-1.07-1.65.54.2.5-.17-.13-.96l-.5-.66.15.66c.12.5.08.6-.17.36-.5-.48-.63-2.26-.2-3.07.45-.87.72-.69.72.5 0 1.09.5 2.2.91 2.04.17-.06.46.2.63.58.35.77 1.02.74.9-.04-.32-2.06-.35-2.86-.08-2.49.15.22.28.73.28 1.14 0 .41.13.99.3 1.29.28.53.28.53.84-.07.85-.91.86-.94.47-4.57a15 15 0 0 0-.66-3.39 4.57 4.57 0 0 1-.27-2.28c.13-1.78-.16-3.1-.7-3.1-.38 0-.76-.36-.77-.73 0-.1.24-.2.53-.2.32 0 .8.43 1.25 1.11.62.94.76 1.48.9 3.56.09 1.45.31 2.7.54 3.06 1.15 1.79 1.54 5.74.7 7.08-.35.55-.74.72-.74.31 0-.12-.3-.17-.67-.1-.76.15-.83.39-.25.87.36.3.35.39-.06.84-.4.43-.4.54-.07.75.21.13.8.25 1.33.25.51 0 1.17.17 1.45.38.5.36.52.99.59 26.39.04 14.3 0 26.28-.07 26.61-.2.79-1.35.83-1.6.06-.09-.3-.1-2.77 0-5.5l.27-9.5c.06-2.52.19-5.27.28-6.13.12-1.03.08-1.6-.12-1.73-.2-.12-.2-.34-.05-.64.14-.26.23-1.15.21-2-.02-.88-.1-1.32-.21-1.04-.17.46-.2.46-.37.02-.1-.25-.12-.73-.04-1.06.08-.33.16-2.08.18-3.9.03-1.82.14-3.43.26-3.58.13-.15.24-1.46.26-2.9.04-3.4.04-3.37-.26-3.18-.17.1-.29-1.75-.33-5.08l-.07-5.23-1.99.07c-2.3.1-2.06-.32.33-.55 1.9-.18 2.3-.4 1.65-.89-.63-.46-.92-.45-.92.03 0 .23-.38.46-.96.57-.82.15-1.04.08-1.42-.43-.35-.46-.61-.56-1.15-.42-.86.21-.9.77-.1 1.16.55.27.54.29-.28.3l-.86.02.03 16.34c.02 8.99.12 20.2.2 24.93.1 4.73.13 9.1.08 9.72-.08 1.04-.36 1.44-.65.94zm6.6-31.62c-.06-.18-.12-.03-.12.33 0 .37.06.51.13.33s.07-.48 0-.66zm.02-14.68c-.07-.26-.13-.1-.13.33 0 .43.05.64.12.47.07-.18.07-.54 0-.8zm.21-2.45c.1-.15.04-.27-.12-.27-.15 0-.28.12-.28.27 0 .14.06.26.12.26s.2-.12.28-.26zm140.47 48.38c-4.23-.29-5.76-.67-5.88-1.5-.05-.32.1-.76.32-.98.27-.28.4-.9.39-1.92-.02-1.7-.22-2.27-.52-1.5-.13.33-.2-.02-.19-.94 0-.95.07-1.23.18-.8.12.47.36.68.83.7 1.03.06 1.06.07 1.06.58 0 .73-.3.9-.7.37-.55-.72-.42.1.17 1.06.64 1.06.67 1.69.09 2.01-.4.22-.38.27.13.43.73.23.75.68.03.68-.3 0-.48.1-.4.22.22.37 2.03.57 2.57.29.33-.18.49-.18.49 0 0 .16.4.28.89.28.85 0 .9-.05 1.05-1.14.17-1.24-.01-2.3-.38-2.3-.13 0-.25.74-.26 1.65-.02 1.23-.08 1.49-.24 1-.31-.98-.31-4.24 0-4.24.14 0 .26.19.26.41 0 .24.19.38.46.33.32-.05.5.15.6.72.1.52.21.68.35.46.12-.18.15-.54.07-.8-.08-.25-.03-.63.11-.85.27-.43.27-.42.4 2.64.07 1.51-.24 2.65-.5 1.85l-.26-.79c-.07-.22-.14 0-.15.46-.02.75.07.86.64.86.57 0 .67-.12.7-.86.01-.52.07-.65.14-.33.26 1.17.32 1.22.88.67.48-.48.53-.87.53-4 0-2.6-.09-3.54-.37-3.82-.52-.53-.54-3.3-.02-3.3.58 0 .55-4.4-.03-5.24-.3-.44-.42-1.28-.43-3.3 0-2.81-.11-3.4-.5-2.8-.2.3-.28.3-.5-.03-.17-.27-.26-.3-.26-.07 0 .18-.12.33-.27.33-.15 0-.26-.24-.26-.53 0-.45-.18-.53-1.16-.53-1.09 0-1.17.05-1.33.83-.09.45-.17 1.67-.19 2.71-.02 1.66-.05 1.78-.26.96-.14-.51-.17-1.79-.09-2.84.09-1.06.1-1.92.02-1.92-.07 0-.44.11-.81.26-.57.21-.68.18-.69-.2 0-.4-.07-.38-.46.1-.76.92-1.35.98-1.55.16-.1-.4-.34-.95-.54-1.24-.28-.42-.35-2.81-.35-12.1 0-10.53.13-12.82.63-11 .09.33.1 5.46.04 11.39l-.11 10.78.69.46c.7.46 1.67.64 3.7.7l1.13.03.1-12.88c.05-7.08.02-12.99-.07-13.13-.09-.14-1-.33-2.01-.42a35.08 35.08 0 0 1-2.71-.32l-.86-.17v1.37c0 .84-.1 1.3-.27 1.2-.14-.09-.26-1.06-.26-2.16 0-1.68.06-1.97.4-1.84.24.1.48-.01.57-.26.13-.33.2-.34.38-.06.15.24.23.1.23-.44 0-.6-.06-.7-.26-.4-.14.22-.27.28-.28.14l-.15-1.79c-.1-1.25-.06-1.52.28-1.52.24 0 .41-.23.41-.52 0-.36-.12-.47-.4-.37-.32.13-.39-.18-.39-1.86 0-1.17.11-2.01.27-2.01.14 0 .27.38.3.86.01.55.07.67.15.33.17-.71.6-1.15.63-.65.01.21.12.09.24-.28.13-.39.22 1.4.2 4.36 0 3.49.09 5.04.3 5.11.19.07.3-.33.3-1.11 0-.67.11-1.21.26-1.21.14 0 .26.53.26 1.18 0 1.04.08 1.2.65 1.35.35.09.76.09.9 0a.32.32 0 0 1 .44.11c.29.47.66 0 .68-.87l.03-.85.28.86c.39 1.22 1.25 1.2 1.25-.04 0-.55-.15-.95-.4-1.05-.43-.16-.55-1.22-.12-1.22.14 0 .26.23.26.53 0 .29.1.52.22.52s.17-.95.1-2.11c-.1-1.58-.04-2.12.2-2.12.24 0 .29.32.18 1.13-.09.61-.05 1.54.07 2.05.19.73.24.38.26-1.66.02-2.13-.04-2.58-.37-2.58-.34 0-.4-.85-.37-6.15.02-3.38.12-6.45.23-6.81.13-.41.21.43.22 2.2 0 1.58.08 2.94.16 3.02.09.09.16-1.95.16-4.52 0-3.26-.1-4.67-.3-4.67-.2 0-.24.45-.11 1.45.12 1 .09 1.46-.1 1.46-.27 0-.38-3.66-.28-8.8.01-.71-.1-1.25-.26-1.25-.15 0-.27.31-.27.7 0 .39-.08.63-.18.53-.32-.32-.43-5.92-.12-6.11.2-.12.3.15.3.77 0 .53.1.9.22.82.25-.15.19-7.5-.07-7.76-.08-.08-.15.16-.15.55s-.12.7-.27.7c-.14 0-.23-.25-.2-.56.1-.86-.54-.9-.67-.04-.1.65-.11.62-.15-.2l-.04-.94h-1.71c-1.2 0-1.75.11-1.85.36-.08.2-.24.3-.38.21-.3-.18-.5 3.6-.27 5.01l.18 1.06.03-1c.05-1.33.56-1.27.56.07 0 .77-.1 1.06-.4 1.06-.29 0-.4.31-.4 1.2 0 .69.12 1.15.26 1.06.13-.08.32-.03.4.12.1.15-.01.27-.24.27-.23 0-.41.11-.41.26 0 .14.18.18.4.1.3-.12.4.1.43 1l.04 1.15.16-1.06c.23-1.49.46-.86.49 1.33.01 1.02-.03 1.64-.1 1.39-.26-.9-.58-.46-.44.58.08.57.06 1.26-.05 1.52-.18.44-.2.44-.41-.05-.17-.4-.23-.24-.26.66-.03.65-.1 1.65-.14 2.21-.06.64.05 1.17.28 1.4.38.38.27 1.15-.16 1.15-.13 0-.24.3-.24.68 0 .43-.1.6-.3.5-.16-.1-.4-.02-.52.18-.16.25-.23.15-.24-.37 0-.47.14-.72.4-.72.22 0 .4-.2.4-.43 0-.36-.08-.37-.4-.1-.35.28-.4.14-.36-1.1.02-.87.08-1.11.15-.62.19 1.3.6 1.42.6.18 0-.73-.11-1.11-.34-1.11-.24 0-.34-.6-.36-2.18 0-1.2.04-1.95.1-1.66.23 1 .6 1.06.63.12.06-1.65-.06-2.23-.5-2.6-.33-.26-.36-.39-.12-.48.39-.15.45-1.93.07-1.93-.39 0-.33-.73.06-.86.26-.09.26-.25-.02-.77-.26-.5-.29-1.09-.1-2.42.12-.98.13-1.77.01-1.77-.12 0-.22-.9-.22-2.01 0-1.68-.07-2-.4-1.87-.52.2-.77-.82-.41-1.76.3-.8.85-1.12 1.5-.87.35.13.37.24.1.56-.19.22-.27.47-.19.55.53.53 14.56.66 16.46.15.91-.24 1.21-.84.43-.84-.32 0-.56-.17-.56-.4 0-.21.05-.4.1-.4.1 0 1.75.82 1.78.89 0 .02.08 1.44.15 3.15.08 2.11.04 3.11-.16 3.11-.17 0-.28-.67-.28-1.7 0-.93-.07-1.88-.16-2.11-.24-.62-.82-.5-.95.18-.15.76.02 1.3.34 1.1.26-.15.32 2.29.36 13.59.02 5.66-.04 6.87-.31 6.5-.29-.4-.34-.24-.34 1.02 0 1.16.1 1.51.47 1.65.44.17.44.2 0 .52-.5.37-.63.95-.2.95.14 0 .26.24.26.53 0 .29-.13.53-.3.53-.2 0-.2.1.02.37.23.28.22.4-.04.5-.25.11-.26.2-.03.37.2.14.34 1.37.4 3.47.06 2.65 0 3.3-.31 3.5-.32.2-.33.3-.05.48.32.2.47 1.52.55 5 .03 1.46.34 1.8.72.8.29-.79.44 11.36.17 13.75-.11.98-.13 3.04-.05 4.57.11 2.05.06 2.87-.18 3.15-.28.3-.36.27-.48-.27-.08-.35-.17-4.64-.21-9.54-.04-4.9-.14-8.97-.22-9.05-.15-.16-4.8.59-5.01.8-.18.17-.42 16.27-.33 21.82l.07 4.4.8.16c.45.09.78.32.78.56 0 .55.97.5 1.3-.06.2-.35.33-.38.5-.14.1.18.47.36.8.41.33.05.86.32 1.18.6.32.27.64.47.7.44.06-.03.08.4.03.94-.04.54-.13 4.58-.19 8.97-.09 6.6-.17 8.03-.5 8.3-.58.48-.46 1.63.28 2.64.36.49.66 1.04.66 1.21 0 .54-1.56.91-4.9 1.17-3.55.28-3.9.28-8.75-.04zm5.44-2.3c-.01-.24-.19-.8-.4-1.23l-.39-.8.17.93c.09.5.17 1.12.19 1.37.03.58.44.32.43-.26zm.4-3.76c-.28-.45-.92.25-.92 1v.67l.55-.7c.3-.38.46-.81.37-.97zm6.93-.57c-.08-.2-.14-.14-.16.16 0 .28.05.44.14.35.09-.09.1-.32.02-.5zm-1.1-1c-.1-.15-.28-.27-.42-.27-.13 0-.25.12-.25.26 0 .15.19.27.42.27.22 0 .34-.12.25-.27zm-1.72-8.2a.27.27 0 0 0-.27-.27.27.27 0 0 0-.26.26c0 .15.12.27.26.27.15 0 .27-.12.27-.27zm2.82-4.17c-.06-.26-.12-.05-.12.46 0 .5.06.72.12.46.07-.25.07-.67 0-.92zm-9-3.05c-.07-.18-.13-.03-.13.33 0 .37.06.52.13.33.08-.18.08-.48 0-.66zm6.44-.46c0-.15-.12-.26-.28-.26-.15 0-.2.11-.12.26.1.15.22.26.28.26.07 0 .12-.11.12-.26zm-4.29-3.51c.05-.99.18-1.74.3-1.66.26.16.51-1.24.43-2.37-.03-.44-.08-1.9-.1-3.26-.03-1.56-.14-2.4-.3-2.3-.16.1-.27-.15-.27-.58 0-.57.06-.65.26-.34.23.35.26.35.3 0 .14-1.52-.13-7.08-.36-7.35-.2-.25-.18-.54.09-1.04.29-.54.3-.72.04-.8-.22-.08-.33-.7-.31-1.88 0-1.23.08-1.6.24-1.24.2.47.23.44.25-.21 0-.43-.1-.67-.25-.58-.45.28-.29-.19.2-.56.4-.3 0-.35-2.65-.36h-3.1l-.04 1.78c-.02.98-.05 6.87-.07 13.09l-.03 11.3.67.07c.36.05 1.55.08 2.64.08h1.99zm-.17-4.81c-.02-.8.08-1.51.23-1.6.16-.1.26.44.26 1.44 0 1.99-.44 2.14-.49.16zm-.04-3.04c0-.3.12-.55.27-.55.14 0 .26.18.26.39 0 .2-.12.45-.26.54-.15.09-.27-.08-.27-.38zm0-4.38c0-.22.12-.4.27-.4.14 0 .26.18.26.4 0 .22-.12.4-.26.4-.15 0-.27-.18-.27-.4zm0-4.77c0-.21.12-.4.27-.4.14 0 .26.19.26.4 0 .22-.12.4-.26.4-.15 0-.27-.18-.27-.4zm.71 18.34c-.08-.2-.14-.14-.16.16 0 .28.05.44.14.35.09-.09.1-.32.02-.5zm-3.62-27.66c0-.26-.12-.64-.26-.86-.2-.3-.26-.2-.26.46 0 .47.11.86.26.86.14 0 .26-.2.26-.46zm.72-1.72c-.06-.33-.12-.06-.12.6 0 .65.06.92.12.59.06-.33.06-.86 0-1.2zm.84.26c-.02-.91-.06-1-.21-.46-.18.62-.1 1.59.14 1.59.05 0 .09-.5.07-1.13zm-8.25-.39c-.07-.26-.13-.11-.13.33-.01.43.04.64.12.46.07-.17.07-.53 0-.79zm8.98.13c-.07-.18-.13-.03-.13.33s.06.51.13.33c.08-.18.08-.48 0-.66zm.89-.46c0-.15-.13-.27-.28-.27-.16 0-.2.12-.12.27.1.14.22.26.28.26.07 0 .12-.12.12-.26zm-.8-.85c0-.55-.09-.76-.25-.6-.14.15-.19.53-.1.85.21.84.35.74.35-.25zm-1.72-9.87c.03-5.31-.03-9.66-.14-9.66-.1 0-.2 4.43-.23 9.84-.01 5.41.05 9.76.15 9.66.1-.1.2-4.52.22-9.84zm1.63 6.42c-.07-.19-.13-.04-.13.33 0 .36.06.5.13.33.08-.18.08-.48 0-.66zm.77-1.2c-.3-.31-.4.15-.22 1.02l.2.9.09-.88c.05-.49.02-.96-.07-1.04zm-9.68.24c0-.79-.06-.88-.28-.5-.15.26-.39.4-.52.32-.14-.08-.25.2-.25.63 0 .66.09.76.53.65.4-.1.53-.36.52-1.1zm8.05-.9c.12-.62.08-.99-.1-.99-.14 0-.27.5-.27 1.1 0 1.3.13 1.27.37-.1zm.6-.26c-.07-.18-.13-.03-.13.33s.06.51.13.33.07-.48 0-.66zm1.14-1.63c0-2.08-.23-1.76-.4.53-.1 1.27-.05 1.7.13 1.43.15-.22.27-1.1.27-1.96zm-3.5-.1c-.07-.4-.12-.06-.12.74s.05 1.12.11.72c.06-.4.06-1.05 0-1.45zm1.88-3.7c-.04-3.62-.08-4.06-.23-2.44-.3 3.12-.3 6.88 0 6.88.17 0 .25-1.63.23-4.43zm.76 2.79c-.07-.33-.12-.13-.12.46 0 .58.04.85.11.6.07-.26.07-.73 0-1.06zm-2.69-3.06c-.35-.35-.46.28-.25 1.45l.23 1.27.08-1.28c.05-.7.02-1.35-.06-1.44zm3.48.54c-.07-.25-.13-.05-.13.46s.06.72.13.47c.06-.26.06-.68 0-.93zm-.76-1.06l-.04-2.05-.16 1.59c-.08.87-.1 1.8-.06 2.05.2.97.3.39.26-1.59zm-.04-6.46c-.08-.22-.15-.15-.16.16-.01.27.05.43.14.34.09-.08.1-.31.02-.5zm-.7-2.68c.03-.55.04-.55.23-.06.16.4.24.28.38-.61.11-.66.07-1.32-.1-1.58-.24-.4-.27-.4-.23.08.07.94-.02 1.2-.4 1.2-.27 0-.37.27-.33.9.05.96.43 1.02.46.07zm-.8-.52c-.01-.18-.13-.5-.27-.72-.2-.31-.26-.24-.26.33 0 .4.12.73.26.73.15 0 .26-.15.26-.34zm2.38-.6c0-.38-.11-.62-.24-.54-.13.09-.18.4-.1.68.19.73.34.66.34-.15zm-1.8-2.42c-.27-.74-.28-.73-.3.3-.01.77.06.97.28.75.2-.2.21-.51.02-1.05zm-1.55-.22c-.08-.22-.2-.4-.25-.4-.06 0-.1.18-.1.4 0 .22.1.4.25.4.14 0 .19-.18.1-.4zm-6.53-.7c-.08-.22-.14-.16-.16.15 0 .28.06.44.14.35.1-.09.1-.32.02-.5zm6.36-2.27c-.07-.26-.13-.1-.13.33-.01.43.04.64.12.47.07-.18.07-.54 0-.8zm2.72.72a.27.27 0 0 0-.26-.26.27.27 0 0 0-.27.26c0 .15.12.27.27.27.14 0 .26-.12.26-.27zm-.3-1.55c-.01-.45-.07-.53-.14-.23-.17.65-.56.57-.7-.13-.07-.38-.12-.25-.14.37-.03.84.03.95.49.83.37-.1.52-.35.5-.84zm-.71-4.07c-.23-.23-.3.05-.28 1.14l.03 1.44.28-1.14c.2-.82.19-1.22-.03-1.44zm-.92.66c-.07-.25-.12-.04-.12.47 0 .5.05.71.12.46.07-.26.07-.67 0-.93zm-.77-4.03c.03-2.11-.05-3.44-.21-3.44-.28 0-.37 5.75-.1 6.46.09.23.18.42.2.42.03 0 .08-1.55.1-3.44zm.83 1.65c-.02-1.28-.06-1.4-.25-.76-.2.68-.08 2.28.17 2.28.06 0 .1-.68.08-1.52zm.92.43c-.09-.15-.16-1-.16-1.9v-1.64l-.25 1.2c-.27 1.32-.07 3 .32 2.76a.3.3 0 0 0 .1-.42zm.16-5.52c0-.15-.05-.27-.12-.27-.06 0-.19.12-.28.27-.09.14-.03.26.12.26s.28-.12.28-.26zm-2.07 91.8c0-.35.06-.5.13-.32s.07.48 0 .66c-.07.18-.13.03-.13-.33zm-1.6-2.1c-.05-.08-.13-2.52-.2-5.43-.1-4.76-.07-5.23.29-4.63.35.6.39.38.4-2.76 0-1.88.08-3.34.18-3.24.09.09.22 1.75.28 3.68.07 1.93.17 3.56.23 3.62.06.06.12-1.19.14-2.78.02-2.22.08-2.67.25-1.96.26 1.03.27 8.45.02 8.86-.1.15-.24-.33-.33-1.06-.1-.94-.18-.38-.24 1.99-.05 1.82-.14 2.68-.2 1.92-.12-1.92-.54-1.75-.66.26-.05.91-.13 1.6-.17 1.52zm.43-7.88c-.06-.84-.1-.15-.1 1.52 0 1.68.04 2.36.1 1.52.05-.83.05-2.2 0-3.04zm.97 6.73c-.07-.2-.01-.64.13-1 .23-.58.26-.56.27.36.02 1-.15 1.28-.4.64zm-7.35-1.16c-.1-.1-.19-.9-.2-1.78-.05-1.57-.05-1.58-.21-.42-.14.99-.2.7-.37-1.66a18.49 18.49 0 0 1-.07-3.06c.07-.12.5-.16.93-.1.69.1.8.24.8.89 0 .57.13.76.52.76.28 0 .56-.2.63-.46.08-.3.13-.2.15.24.02.4.21.89.43 1.1.22.23.4.7.4 1.08 0 .49-.11.63-.4.52-.4-.16-.48.06-.43 1.1l.02.52-.24-.53c-.13-.29-.25-.83-.26-1.19-.04-.98-.47-.19-.82 1.52-.29 1.36-.55 1.8-.88 1.47zm3.5-2.41c-.17-1.53.09-3.53.33-2.56.07.29.06 1.3-.02 2.25l-.15 1.72-.16-1.41zm1.1-.98c0-.36.11-.66.26-.66.14 0 .26.3.26.66 0 .37-.12.67-.26.67-.15 0-.27-.3-.27-.67zm14.32-2.25c0-.36.06-.5.14-.33.07.19.07.48 0 .67-.08.18-.14.03-.14-.34zm-15.35-1.32c.02-1.45.02-1.45.26-.44.15.63.14 1.18-.02 1.46-.19.32-.25.04-.24-1.02zm-.92.88c-.28-.28-.2-1.94.1-1.94.14 0 .26.48.26 1.06 0 1.08-.05 1.2-.36.88zm-1.2-1.18c-.17-.46-.3-1.8-.32-2.98-.02-2.45-.13-2.4-.38.2-.18 1.85-.43 2.13-.58.63-.17-1.82-.1-3.5.18-3.58.15-.06.27-.32.27-.58 0-.89.32-1.33.96-1.33.35 0 .63.12.63.27 0 .14-.3.26-.66.26-.39 0-.66.16-.66.37 0 .38.7.78 1.03.58.1-.06.13.3.08.8-.06.5-.22.9-.35.9-.36 0-.27.52.17.96.28.28.4.97.4 2.37 0 2.08-.3 2.5-.78 1.13zm-2.28-.76c-.1-.14-.04-.26.12-.26.15 0 .28.12.28.26 0 .15-.06.27-.12.27s-.2-.12-.28-.27zm5.42-2.11c0-.15.12-.27.27-.27.14 0 .26.12.26.27 0 .14-.12.26-.26.26a.27.27 0 0 1-.27-.26zm1.06-2.12c0-.44.12-.8.27-.8.14 0 .26.36.26.8 0 .44-.12.8-.26.8-.15 0-.27-.36-.27-.8zm-.86-.16c-.11-.1-.2-.37-.2-.6 0-.3.08-.33.3-.1.16.15.25.42.19.59-.06.17-.19.22-.3.11zm2.46-1.05c0-1 .07-1.2.27-.85.28.48.22 1.64-.1 1.96-.1.1-.18-.4-.17-1.11zm8.87-3.26c-.59-.23-.32-.47.92-.82.86-.25 1 0 .37.64-.46.46-.55.47-1.29.18zm2.24-.93c-.39-1.03-.34-1.68.15-1.96.4-.21.4-.25 0-.4-.6-.23-.63-4.15-.04-4.15.23 0 .46.37.55.9.18.96-.02 5.95-.25 6.18-.08.08-.26-.18-.41-.57zm-104.59-5.78a7.12 7.12 0 0 1 .1-2.31c.13-.25.22.48.23 1.91 0 1.28-.04 2.32-.1 2.32-.04 0-.15-.86-.23-1.92zM161.54 122c-.08-.13-.03-.32.12-.41.14-.1.26.02.26.25 0 .46-.15.53-.38.16zm-47.74-3.5c-.36-1.02-.4-2.15-.06-1.54.27.46.64 2.38.47 2.38-.07 0-.25-.38-.41-.84zm47.73-.49c.09-.14.21-.26.28-.26.06 0 .11.12.11.26 0 .15-.12.27-.28.27-.15 0-.2-.12-.11-.27zm3.04-.11c0-.23.12-.41.27-.41.14 0 .26.1.26.24 0 .14-.12.33-.26.42-.15.09-.27-.03-.27-.25zm12.58-1.64c-.12-.76-.08-1.33.1-1.5.2-.21.29.14.29 1.22 0 .83-.05 1.5-.1 1.5-.06 0-.2-.55-.3-1.22zm-59.55-.3c-.08-.54-.21-1.26-.28-1.58-.06-.33 0-.6.13-.6s.37.6.53 1.34c.35 1.63.36 1.84.04 1.84-.14 0-.33-.45-.42-1zm46.22.2c0-.36.06-.51.13-.33.08.18.08.48 0 .66-.07.18-.13.04-.13-.33zm-3.22-3.44c0-.43.12-.8.27-.8.14 0 .26.37.26.8 0 .44-.12.8-.26.8-.15 0-.27-.36-.27-.8zm3.97-.53c0-.83.1-1.29.27-1.19.14.1.26.63.26 1.2 0 .56-.12 1.1-.26 1.18-.17.1-.27-.35-.27-1.19zm12.72.11c.01-.3.08-.37.16-.16.08.2.07.42-.02.51-.09.09-.15-.07-.14-.35zm-18.29-.53c0-.27-.1-1.3-.21-2.29-.11-.98-.1-1.78.01-1.78.12 0 .21-.14.21-.3 0-.16-.17-.22-.4-.14-.32.13-.38-.11-.34-1.36.04-1.32.06-1.37.14-.39.12 1.3.6 1.53.6.29 0-.46.08-.76.18-.66.21.2.19 6.78-.03 7-.08.07-.15-.09-.16-.37zm-142.07-.45c0-.2.17-.57.36-.84.34-.46.37-.43.49.35.1.68.03.83-.36.83-.27 0-.49-.15-.49-.34zm142.73-.47c-.1-.16-.04-.42.12-.58.21-.22.3-.14.3.28 0 .64-.14.74-.42.3zm-.12-1.3c0-.15.12-.27.27-.27.14 0 .26.12.26.27 0 .14-.12.26-.26.26a.27.27 0 0 1-.27-.26zm3.98-.07c0-.18.12-.5.26-.73.2-.3.25-.23.26.33 0 .4-.12.73-.26.73-.15 0-.27-.15-.26-.33zm1.08-7.98c-.02-4.5.06-8.1.17-7.99.28.28.37 14.84.1 15.57-.14.36-.25-2.7-.27-7.58zm12.57 7.1c-.1-.23-.05-.62.1-.86.2-.35.25-.27.26.42 0 .94-.11 1.09-.36.44zm-17.5-.18c-.07-.18-.02-.68.12-1.12.23-.77.24-.76.26.33.02 1.1-.14 1.44-.38.8zm-79.88-3.17a2.1 2.1 0 0 1 0-1.2c.18-.4.22-.38.31.14.06.33.06.86 0 1.19-.1.56-.11.55-.3-.13zm80.81-.73c0-.3.12-.53.27-.53.14 0 .26.24.26.53 0 .3-.12.53-.26.53-.15 0-.27-.24-.27-.53zm-1.53-.93c0-.43.06-.58.13-.32.06.26.06.61-.01.8-.07.17-.13-.04-.12-.48zm-143.72-2.77c-2.55-.25-4.02-.54-4.44-.87-.24-.18-.33-1.4-.33-4.4 0-3.84.04-4.15.53-4.46.36-.23.53-.62.53-1.23 0-.67-.13-.92-.53-1.03-.7-.18-.69-1.14.02-1.32.45-.12.5-.24.28-.66-.37-.68.04-1.05 1.02-.9.68.1.73.16.46.6-.24.38-.23.57.02.82.17.18.32.55.32.83 0 .4-.13.47-.66.34-.38-.1-.66-.06-.66.1 0 .15.17.27.4.27.21 0 .39.12.39.26 0 .15.18.27.4.27.26 0 .4.27.4.8 0 .45.1.75.23.67.3-.19.55.76.55 2.15 0 .95-.07 1.1-.52 1.07-.41-.03-.53-.23-.53-.9 0-.46-.11-.92-.25-1-.16-.1-.26.67-.25 1.95 0 1.75-.09 2.2-.52 2.63-.52.51-.52.51-.7-.42-.1-.6-.06-1.01.12-1.13.21-.12.18-.28-.1-.52-.23-.19-.43-.23-.44-.1l-.1 1.02c-.05.43-.03 1.3.05 1.92.1.93.2 1.08.5.83.27-.22.38-.22.4 0l.07.62c.05.5 1.22.59 1.22.09 0-.37.06-.37.5.02.55.47 2 .75 1.74.34-.09-.14-.03-.25.12-.25.16 0 .28.12.28.26 0 .15.35.27.76.27.74 0 .77-.06 1-1.66l.22-1.65.08 1.79c.12 2.56.6 2.22.56-.4-.03-2.24-.38-7.49-.46-6.86-.05.45-.57.13-.57-.36 0-.22.16-.31.4-.22.33.13.4-.18.4-1.86 0-2.94.41-2.46.47.54.02 1.4.1 2.61.18 2.69.15.15.26-4.14.16-6.79-.03-1.13.04-1.62.23-1.5.15.1.28.96.28 1.92s.08 1.67.18 1.57c.1-.1.2-2.38.21-5.08.04-4.61.01-4.88-.44-4.74-.55.18-.63-.15-.16-.62.24-.25.22-.32-.1-.32-.47 0-.83 2.16-.57 3.46.1.49.04.77-.15.77s-.3-.65-.3-1.85c0-1.21-.1-1.85-.3-1.85-.21 0-.26.58-.15 1.98.08 1.09.06 2.04-.06 2.11-.26.16-.54-1.43-.54-3.13 0-1.07-.07-1.24-.37-.99-.28.24-.4.21-.53-.12-.25-.65-1.3-.37-1.48.41-.1.45-.22.55-.36.33-.11-.18-.13-.45-.04-.6.3-.47-1.23-.87-2.11-.55-.65.24-.86.21-1.24-.17-.4-.42-.46-1.65-.56-13.35-.06-7.08-.03-13 .07-13.17.12-.2.45-.17 1.08.09.93.38 1.57.32 1.57-.13 0-.14-.12-.19-.27-.1-.16.1-.26-.27-.26-.93 0-.85-.11-1.13-.5-1.23-.43-.11-.48-.38-.42-2.62.03-1.38-.02-2.55-.12-2.61-.35-.22-.3-5.8.05-6.02.23-.15.24-.27.04-.41-.17-.12-.27-1.14-.26-2.53.02-1.94-.06-2.4-.44-2.68-.56-.4-.67-2.58-.14-2.51.19.02.6-.05.93-.15.65-.21.82-.93.22-.93-.21 0-.46-.24-.56-.55-.1-.33-.32-.49-.54-.4-.2.08-.38.03-.38-.11 0-.35 1.25-.33 1.47.02.11.18.36.12.72-.2.47-.4.53-.41.4-.05a.81.81 0 0 0 .15.76c.23.26.23.36-.02.46-.4.14-.45.87-.07.87.14 0 .26.48.26 1.07 0 .6-.1 1-.24.92-.36-.22-.58.26-.37.8.16.44.2.44.38-.04.18-.47.2-.46.22.07.03 1.23.52.84.61-.5.1-1.34.1-1.32.15.37.03 1.16-.06 1.8-.27 1.86-.22.08-.29.91-.24 2.8.05 2.3 0 2.7-.35 2.7-.6 0-.61 4.17-.02 4.4.53.2.57 2.48.04 2.48-.52 0-.56 2.28-.04 2.48.22.08.4.45.4.81 0 .48-.11.62-.4.5-.25-.09-.4.01-.4.28 0 .24.18.43.4.43.25 0 .4.25.4.66 0 .41-.15.66-.4.66-.22 0-.4.12-.4.26 0 .25.36.3 3.07.4.6.03 1.28.12 1.5.2.25.1.49-.01.6-.28.15-.39.21-.37.4.15.14.34.46.6.78.6.5 0 .53-.16.5-2.06-.02-1.13-.12-3.36-.22-4.96l-.19-2.9-.04 2.42c-.06 3.49-.57 3.47-.57-.02 0-1.65-.12-2.84-.28-2.95-.2-.11-.24 1.07-.15 3.82.07 2.37.02 4-.12 4-.22 0-.4-7.12-.25-9.37.04-.6-.04-.73-.37-.6-.32.12-.42 0-.4-.56.01-.6.05-.64.22-.2.18.47.21.46.37-.13.26-.97.18-4.8-.1-5.41-.2-.41-.23-.3-.14.45.15 1.22-.24 1.57-.47.43-.25-1.26-.2-3.93.08-3.93.14 0 .3.57.35 1.26.06.7.12-.33.15-2.26.03-2.22-.05-3.47-.2-3.37-.15.09-.2.51-.1.94.1.5.04.79-.15.79-.17 0-.3-.49-.32-1.13-.2-8.73-.2-11.83.03-11.97.16-.1.26.74.27 2.3 0 1.72.08 2.33.26 2.02.26-.45.16-7.54-.11-7.82-.08-.08-.26.14-.4.49-.19.46-.25-.13-.24-2.15.02-2.68.02-2.72.23-1.1.32 2.44.51 2.32.51-.31 0-1.35.11-2.3.27-2.3.17 0 .26 2 .26 5.43 0 3.71.1 5.42.29 5.42.19 0 .23-.42.12-1.22-.18-1.35.03-2.83.38-2.61.12.07.22 2 .21 4.3-.02 7.17.05 9.85.26 9.85.1 0 .38-.12.6-.27.32-.21.33-.3.03-.49-.46-.3-.56-2.97-.12-3.13.2-.07.36.27.43.9.06.56.07-1.3.02-4.12a53.4 53.4 0 0 0-.23-5.27c-.07-.08-.14.12-.14.43 0 .32-.1.58-.22.58s-.2-.69-.2-1.53c.02-1.25.1-1.5.46-1.45.38.07.42-.2.3-2.11-.09-1.48-.25-2.26-.5-2.4a.83.83 0 0 1-.36-.66c0-.39.04-.4.26-.06.2.33.26.29.26-.2 0-.32-.12-.59-.26-.59-.15 0-.27-.2-.27-.42 0-.27.15-.37.4-.28.22.09.4.04.4-.1 0-.3-.94-.82-1.15-.61-.43.43-3.22.07-4.42-.57-.4-.22-.82-.28-1.03-.14a.92.92 0 0 1-.72.08c-.26-.1-.35.15-.35.95 0 .6.11 1.09.26 1.09.38 0 .33.73-.06.86-.75.25-1.66-1.77-1-2.18.54-.33.09-1.06-.65-1.06-.7 0-.84-.38-.42-1.04.2-.34.36-.33 1.12.05.48.24 1.85.57 3.04.74 1.66.24 2.13.4 2.02.68-.08.22.04.36.32.36.27 0 .4-.14.31-.36-.11-.3.78-.39 4.93-.5 5.4-.13 6.23-.27 5.7-.9-.22-.27-.23-.46-.02-.66.2-.21.53-.15 1.16.22.87.5.88.53.96 2.68.06 1.7-.01 2.2-.3 2.32-.38.15-.34.59.29 2.63.34 1.11.63 26.94.36 32.14-.06 1.1-.05 4.01.02 6.49.06 2.47.03 6.28-.07 8.46-.1 2.19-.07 8.85.07 14.8.23 9.76.21 10.87-.16 11.15-.57.42-.59 2.28-.02 2.06.35-.14.4.75.33 7.48l-.07 7.64-1.46.5c-1.2.41-2.35.51-6.61.57-2.84.03-6.05-.03-7.14-.14zm3.96-1.47c0-.23-.12-.34-.26-.25-.15.1-.2.28-.12.41.23.37.38.3.38-.16zm.72-1.64c-.06-.4-.1-.08-.1.73 0 .8.04 1.12.1.72.06-.4.06-1.05 0-1.45zm.8.66c-.07-.33-.12-.12-.13.46 0 .58.05.85.12.6.07-.25.07-.73 0-1.06zm-1.58-3.01c-.16-3.8-.5-3.82-.44-.03.03 1.87.15 3.03.3 2.93.15-.09.2-1.31.14-2.9zm1.62-.55c-.03-.62-.08-.77-.15-.41-.23 1.15-.61.58-.61-.89 0-1.2.07-1.45.4-1.33.21.08.4.04.4-.1s-.19-.26-.4-.26c-.32 0-.4-.4-.4-1.98 0-1.16-.11-1.99-.27-1.99-.27 0-.33 6.05-.07 8.03.13 1 .13 1 .63.47.33-.35.49-.88.47-1.54zm-7.2-2.8c-.07-.17-.13-.02-.13.34 0 .36.06.51.13.33s.07-.48 0-.66zm-.79-1.3c-.08-.2-.15-.15-.16.16-.01.28.05.44.14.35.09-.09.1-.32.02-.5zm11.66-14.42a2.17 2.17 0 0 0-.93 0c-.25.07-.04.12.47.12.5 0 .71-.05.46-.12zm2.32-.9c2.15-.34 3.23-.88 2.79-1.41-.2-.23-.29-3.42-.29-9.82 0-5.22-.07-10.12-.17-10.91-.16-1.37-.19-1.42-.85-1.27-4.53 1.04-12.36.9-15.73-.28-.57-.2-1.12-.3-1.24-.23-.11.08-.22 5.3-.23 11.61-.01 8.8.06 11.55.3 11.75.38.3 3.59.82 5.76.93 2.6.13 7.76-.06 9.66-.37zM21.62 50.8c.22-.3.2-.52-.08-.91-.35-.48-.37-.44-.37.5 0 .57.03.98.07.92.04-.06.21-.3.38-.51zm-.98-1.2c0-1.12.32-1.57.62-.85.07.18.14-.34.15-1.17a7.95 7.95 0 0 0-.17-1.98c-.16-.43-.2-.4-.37.17-.13.5-.19.34-.2-.64-.02-.71-.11-1.22-.2-1.12-.25.24-.27 6.79-.03 6.79.1 0 .2-.54.2-1.2zm0-2.52c0-.3.12-.47.26-.38.15.09.27.33.27.54 0 .21-.12.39-.27.39-.14 0-.26-.25-.26-.55zm9.19-1.63c-.06-.48-.11-.15-.11.72s.04 1.26.1.86c.06-.4.06-1.1 0-1.58zm-8.63-3.16c-.2-.7-.25-.76-.27-.26-.02.45-.14.58-.44.47-.32-.12-.4-.02-.33.43.04.33.26.6.48.6.23 0 .44.31.52.79.12.77.12.77.21-.17a6 6 0 0 0-.17-1.86zm-7.7 1.37c0-.15-.13-.27-.29-.27-.15 0-.2.12-.11.27.09.14.21.26.28.26.06 0 .11-.12.11-.26zm6-2.96c-.09-.21-.15-.15-.16.16-.02.27.05.43.13.34.1-.08.1-.31.03-.5zm1.06-1.87c-.06-.33-.12-.12-.12.46 0 .58.05.85.11.6.07-.25.07-.73.01-1.06zm-.27-1.72c-.07-.25-.12-.1-.13.33 0 .44.05.65.12.47.07-.18.08-.54.01-.8zm-.74-1.46c-.03-1.03-.05-1.06-.22-.33-.1.44-.13.94-.07 1.13.21.62.32.32.29-.8zm-6.59.33c-.26-.17-.28-.25-.06-.26.46 0 .41-.44-.07-.63-.28-.1-.4.03-.4.5 0 .45.15.66.47.65.4 0 .4-.04.06-.26zm7.4-3.17c-.14-1.34-.24-1.38-.6-.27-.08.22-.16-.2-.19-.92-.02-.73-.14-1.98-.25-2.78-.17-1.17-.2-.82-.2 1.8 0 1.78.1 3.3.23 3.38.13.08.23-.1.23-.4 0-.3.12-.55.26-.55.15 0 .28.69.3 1.52.03 1.32.05 1.4.21.6.1-.51.1-1.58.02-2.38zm-7.02.6c-.25-1.38-.38-1.42-.38-.12 0 .61.13 1.1.28 1.1.18 0 .21-.36.1-.99zm5.33-.54c-.3-.3-.46.18-.25.78l.21.61.1-.61c.05-.34.03-.7-.06-.78zm0-5.02c-.1-2.3-.24-4.22-.3-4.28-.06-.06-.11 1.81-.11 4.17 0 2.98.09 4.27.3 4.27.2 0 .24-1.15.1-4.16zm-6.85.68c-.08-.22-.14-.15-.16.16 0 .27.05.43.14.34.09-.09.1-.31.02-.5zm8.55-1.64c0-.21-.27-.37-.66-.37-.36 0-.66.05-.66.11 0 .09.89.51 1.26.6.03.01.06-.14.06-.34zm9.45-2.48c-.07-.25-.13-.1-.13.33-.01.44.04.65.12.47.07-.18.07-.54 0-.8zm-11.28-4.88c-.03-1.78-.1-3.3-.17-3.36-.35-.35-.4.51-.23 3.53.1 1.83.25 3.28.32 3.2.06-.06.1-1.58.08-3.37zm-.9 1.04c-.05-.33-.1-.06-.1.6 0 .65.05.92.1.6.07-.34.07-.87 0-1.2zM17.39 19c-.09-.21-.15-.15-.16.16-.01.28.05.44.14.35.09-.09.1-.32.02-.51zm143.28 81.01c0-.5.06-.72.12-.46.07.25.07.67 0 .93-.06.25-.12.04-.12-.47zm3-1.28c-.1-.19-.13-.41-.04-.5.24-.24.5.11.37.5-.1.27-.16.26-.32 0zm-2.13-.3c.09-.15.21-.27.28-.27.06 0 .11.12.11.27 0 .14-.12.26-.28.26-.15 0-.2-.12-.11-.26zm1.21-.16c.01-.3.08-.37.16-.16.08.2.07.42-.02.5-.09.1-.15-.06-.14-.34zm-46.65-.8c-.11-.1-.2-1.2-.2-2.45 0-1.57.08-2.17.27-1.98.16.16.25 1.19.2 2.46-.04 1.2-.16 2.09-.27 1.98zm43.74-.26c.01-.3.07-.37.16-.16.08.2.07.42-.02.51-.09.09-.15-.07-.14-.35zm2.91 0c.01-.3.08-.37.16-.16.08.2.07.42-.02.51-.09.09-.15-.07-.14-.35zm-147.07-.64c0-.5.06-.71.12-.46.07.25.07.67 0 .93-.06.25-.12.04-.12-.47zm94.66.4c0-.22.12-.4.27-.4.14 0 .26.18.26.4 0 .22-.12.4-.26.4-.15 0-.27-.18-.27-.4zm2.18-.93c0-.5.05-.71.12-.46.07.26.07.67 0 .93-.07.25-.12.04-.12-.47zm-97.67.11c.01-.3.07-.37.16-.16.07.2.06.42-.02.51-.1.09-.15-.07-.14-.35zm96.51.03c-.09-.3-.18-1.07-.2-1.72-.04-.88.03-1.12.24-.9.17.16.26.91.21 1.72-.05.88-.14 1.22-.25.9zm-93.72-.47c-.25-.94-.2-3.9.08-3.9.13 0 .28.96.33 2.14.08 2.12-.1 2.91-.41 1.76zm145.13.07c0-.36.06-.51.13-.33.08.18.08.48 0 .66-.07.18-.13.03-.13-.33zM16.71 94.72c0-.36.06-.51.13-.33.08.18.08.48 0 .66-.07.18-.13.03-.13-.33zm147.09-.15c.01-.31.07-.37.16-.16.07.19.06.42-.02.5-.1.1-.15-.06-.14-.34zm-53.56-2.19c-.2-2.27-.14-3 .23-2.63.08.08.11 1.26.07 2.62l-.08 2.48zm-1.48.33c.02-.3.08-.37.16-.16.08.2.07.42-.02.51-.08.09-.15-.07-.14-.35zm53.7.16c0-.15.11-.27.26-.27.14 0 .26.12.26.27 0 .14-.12.26-.26.26a.27.27 0 0 1-.27-.26zm-51.31-.68c0-.31.07-.38.16-.16.07.19.06.41-.03.5-.08.09-.15-.07-.13-.34zm-1.7-.83c-.27-1.61-.2-8.55.07-8.55.3 0 .46 9.18.17 9.47-.04.04-.16-.37-.25-.92zm52 .32c0-.44.06-.58.13-.33.07.26.06.62-.01.8-.07.18-.13-.04-.12-.47zm-53.5-1.46c0-.77.1-.94.53-.94.43 0 .53.17.53.98 0 .83-.09.98-.53.95-.42-.03-.53-.23-.53-.99zm6.2-2.9c0-2.12.03-2.98.08-1.93.05 1.06.05 2.79 0 3.84-.05 1.06-.09.2-.09-1.92zm47.3 2.5c0-.43.06-.58.13-.32.07.26.06.61-.01.8-.07.17-.13-.04-.12-.47zm-54.56-.26c0-.24.13-.4.29-.34.15.05.28.2.28.34s-.13.3-.28.35c-.16.05-.29-.1-.29-.35zm0-1.06c-.27-.32-.25-.4.09-.4.49 0 .81.44.48.65-.14.08-.4-.03-.57-.25zm.95-.1c-.21-.33.03-8.77.26-9 .06-.06.11.57.11 1.4 0 1.09.11 1.54.4 1.65.32.12.4.67.4 2.58 0 1.33-.12 2.6-.27 2.81-.14.22-.26.28-.27.13-.02-.14-.12-.03-.23.25-.14.37-.25.42-.4.18zm3.36-.96c0-.72.05-.99.12-.59.06.4.05 1 0 1.33-.07.32-.12 0-.12-.74zm-93.7-.66c-.01-.93.06-1.31.2-1.05.13.21.14.87.03 1.45-.2 1.05-.2 1.05-.23-.4zm144.95 1.06c0-.14.12-.26.27-.26.14 0 .26.12.26.26 0 .15-.12.27-.26.27a.27.27 0 0 1-.27-.27zm1.09-1.12c.02-1.1.07-1.25.24-.73.3.96.3 2.12 0 2.12-.15 0-.26-.63-.24-1.4zm-3.15-.33c0-.44.06-.59.13-.33.07.26.06.62 0 .8-.08.17-.14-.04-.13-.47zm-50.23-1.72c0-1.24.05-1.75.1-1.13.06.62.06 1.63 0 2.25-.05.62-.1.11-.1-1.12zm-91.87-.2c.03-1.12.05-1.17.23-.46.3 1.17.3 1.72 0 1.72-.14 0-.25-.57-.23-1.26zm92.69.9c-.08-.18-.02-.63.12-.99.24-.59.26-.56.27.35.02 1-.15 1.28-.4.65zm-99.55-.75c.05-.35.29-.6.6-.62.3-.03.68-.1.84-.16.31-.1.36-.01.36.7 0 .3-.17.36-.66.24-.4-.1-.66-.06-.66.12 0 .16-.13.3-.29.3-.15 0-.24-.26-.2-.58zm150.02-.35c0-.44.06-.58.13-.33.07.26.06.62-.01.8-.07.18-.13-.03-.12-.47zm-.96-.8c.1-.72.22-1.37.28-1.43.24-.26.06 2-.18 2.36-.2.28-.22.02-.1-.92zm-44.87-1.98c0-1.8.1-2.88.26-2.78.3.19.28 5.4-.03 5.58-.13.08-.23-1.18-.23-2.8zm46.83 2.52c0-.22.05-.4.1-.4.07 0 .18.18.26.4.09.21.04.4-.1.4s-.26-.19-.26-.4zM11.41 81.75c-.09-2.26.07-2.62 1.07-2.5 1.03.14 1.13.24.78.83-.15.27-.28.36-.29.21 0-.15-.24-.27-.53-.27-.44 0-.53.17-.53.98 0 .54.15 1.05.33 1.13.26.12.26.19 0 .31a.63.63 0 0 0-.33.53c0 .2-.1.37-.22.37-.13 0-.25-.72-.28-1.6zm6.81.8c-.07-.36-.05-.96.04-1.32.15-.61.18-.62.34-.14.1.3.08.9-.04 1.33-.21.78-.21.78-.34.13zm92.95 0c0-.36.06-.51.13-.33s.07.48 0 .66c-.07.18-.13.03-.13-.33zm2.01-.15c-.08-.14-.06-.72.04-1.3l.18-1.06.14.82c.14.88-.1 1.95-.36 1.54zm.86-1.44c0-.77.07-1.33.16-1.24.2.2.19 2.3-.02 2.5-.08.09-.14-.48-.14-1.26zm-94.99.53c0-.29.1-.53.24-.53.13 0 .18.24.1.53-.07.3-.18.53-.24.53-.05 0-.1-.24-.1-.53zm-6.88-.54c0-.3.12-.47.27-.38.14.09.26.33.26.54 0 .21-.12.38-.26.38-.15 0-.27-.24-.27-.54zm97.1-1.7c0-1.63.1-2.24.33-2.19.2.04.3-.23.24-.8-.04-.48.05-.85.2-.85.2 0 .28 1.04.25 3.1-.02 1.71-.1 2.7-.15 2.19-.06-.51-.24-1.05-.4-1.2-.19-.18-.23.04-.12.73.08.54.04 1.06-.1 1.14-.15.09-.25-.78-.25-2.11zm.8-.92c0-.28-.12-.58-.27-.67-.15-.1-.26.12-.26.5s.12.69.26.69c.15 0 .27-.24.27-.52zm2.19 2.1c0-.65.05-.92.11-.6.06.34.06.87 0 1.2-.06.33-.11.06-.11-.6zm47.28.8c0-.15.13-.27.28-.27.16 0 .21.12.12.27-.09.14-.22.26-.28.26-.06 0-.12-.12-.12-.26zm-51.02-4.12c.03-2.75.11-3.9.25-3.3.23 1.06.13 7.09-.13 7.34-.1.1-.15-1.72-.12-4.04zm-92.05 2.93c0-.59.06-.8.12-.46.06.33.06.8 0 1.05-.07.26-.12-.01-.12-.6zm2.7.1c-.1-.15-.05-.41.11-.58.22-.21.3-.14.3.3 0 .63-.14.73-.41.29zm91.7-2.9c0-2.18.08-3.16.25-2.9.23.38.1 5.82-.15 6.07-.06.06-.1-1.37-.1-3.17zm-3-.48c-.2-2.3-.14-2.98.22-2.62.08.08.11 1.26.07 2.62l-.08 2.48zm4.25 2.2c-.11-.11-.2-.44-.2-.74 0-.39.08-.46.29-.25.16.16.25.5.2.74-.05.25-.18.36-.3.25zm-97.53-.64c0-.37.06-.52.14-.33.07.18.07.48 0 .66-.08.18-.14.03-.14-.33zm.76-.15c0-.39.11-.6.26-.51.15.09.26.39.26.67s-.11.52-.26.52c-.15 0-.26-.3-.26-.68zm97.94.01c0-.43.07-.58.14-.32.06.26.06.61-.01.8-.08.17-.13-.04-.13-.48zm.64.17c-.12-.18-.14-.4-.05-.5.23-.23.5.12.36.5-.09.27-.15.27-.31 0zm-102.4-.26c-.11-.19-.13-.4-.05-.5.24-.23.5.11.37.5-.09.27-.15.27-.32 0zm4.9-.2c0-.3.07-.36.15-.15.08.19.07.42-.02.5-.08.1-.15-.06-.13-.34zm2.62.15c0-.16.12-.21.26-.12.15.09.27.22.27.28 0 .06-.12.12-.27.12-.14 0-.26-.13-.26-.28zm142.23-1.09c-.52-.3-.52-.31 0-.51.74-.29 7-.29 7 0 0 .52-6.23.98-7 .51zm10.3.12c-1.95-.1-2.78-.28-2.78-.6 0-.41 4.63-.3 5.2.13.27.2.35.38.18.39-.17 0-.46.04-.66.08-.2.05-1.06.05-1.94 0zm-62.23-1.53c0-.73.05-1 .11-.6s.06 1 0 1.33c-.06.33-.11 0-.11-.73zm.45-2.25c0-.58.12-1.06.27-1.06.14 0 .26.48.26 1.06 0 .58-.12 1.06-.26 1.06-.15 0-.27-.48-.27-1.06zm3.33.63c-.31-.83-.52-8.04-.23-8.04.23 0 .69 8.16.47 8.41-.03.05-.14-.12-.24-.37zm-5.42-.52c0-.3.07-.37.16-.16.07.2.06.42-.02.5-.1.1-.16-.06-.14-.34zm4.25-.38c0-.36.06-.5.13-.33.08.19.08.48 0 .67-.07.18-.13.03-.13-.34zm-41.86.2c-.23-.9-.23-2.56 0-2.7.19-.11.28.3.28 1.3 0 .8-.06 1.47-.13 1.47-.08 0-.14-.03-.15-.07zm38.05-.64c-.43-.11-.46-.6-.42-6.12.03-3.3.1-5.5.15-4.88.05.62.23 1.13.38 1.13.18 0 .23-.34.14-.86-.08-.48-.09-.71-.01-.53.07.18.3.33.5.33.21 0 .38.24.38.53 0 .29.13.53.3.53.16 0 .23-.15.16-.33-.06-.19-.04-.57.07-.86.1-.28.27 1.2.37 3.28.13 2.55.1 3.9-.09 4.08-.2.2-.28-.53-.28-2.42 0-1.62-.1-2.7-.26-2.7-.15 0-.29.21-.3.47-.03.25-.13-.13-.23-.86-.17-1.22-.19-1.24-.22-.33-.03.54-.18.99-.33.99-.19 0-.23.35-.13 1 .09.54.04 1.39-.1 1.88-.28.96-.1 1.65.28 1.05.16-.26.23-.2.23.25 0 .34-.1.55-.23.47-.13-.08-.31.04-.4.27-.26.69-.18 1.16.2 1.16.44 0 .42.71-.04 1.53-.29.5-.28.6.07.6.22 0 .4.11.4.26 0 .14-.03.25-.06.23a7.4 7.4 0 0 0-.53-.15zM61.4 71.02c.02-.31.08-.37.16-.16.08.19.07.42-.02.5-.08.1-.15-.06-.14-.34zm.84-1.17c0-.5.05-.72.12-.46.07.25.07.67 0 .92-.07.26-.12.05-.12-.46zm4.5-.53c0-.65.06-.92.12-.6.06.33.06.87 0 1.2-.06.32-.11.06-.11-.6zm-2.95-.42c0-.3.07-.37.16-.16.07.2.06.42-.03.5-.08.1-.15-.06-.13-.34zm-2.4-.86c0-.58-.12-1.1-.26-1.14-.15-.06-.17-.7-.03-1.68.16-1.19.13-1.77-.15-2.3-.46-.92-.46-1.8 0-1.8.2 0 .52-.18.7-.4.23-.27.24-.4.03-.4-.16 0-.29-.26-.28-.59.02-.57.03-.57.25-.07.14.34.25-.76.29-3.04l.07-3.57.18 3.17.25 4.1.06.93.19-.8c.17-.75.18-.74.35.4.1.66.08 2.44-.04 3.97l-.22 2.78-.03-2.58c-.03-1.52-.15-2.58-.3-2.58-.16 0-.27.84-.27 1.99 0 1.3-.1 1.98-.3 1.98-.2 0-.26.4-.17 1.2.08.65.03 1.25-.1 1.33-.12.08-.23-.33-.23-.9zm1.6.33c.01-.3.08-.37.16-.16.08.2.07.42-.02.51-.09.09-.15-.07-.14-.35zm7.7-.4c.1-1.15.48-1.25.48-.12 0 .52-.12.94-.27.94-.14 0-.24-.36-.2-.81zm-7.19-4.06c0-2.44.1-3.85.27-3.85.34 0 .32 7.34-.03 7.55-.14.1-.24-1.43-.24-3.7zm45.7 3.67c-.1-.1-.2-.56-.2-1 0-.58.09-.72.3-.52.15.16.24.61.2 1-.06.4-.18.63-.3.52zM70.65 66.3c0-.2.12-.45.27-.54.14-.1.26.08.26.38s-.12.54-.26.54c-.15 0-.27-.17-.27-.38zm40.16-.4c-.1-.37-.2-1.2-.2-1.86.01-.94.07-1.1.28-.73.15.26.24 1.1.2 1.85-.07 1.1-.13 1.25-.28.73zm-45.13-.4c0-.44.06-.59.13-.33.07.26.06.61-.01.8-.07.17-.13-.04-.12-.48zm-1.38-1.84c0-.21.12-.46.27-.55.14-.09.26.08.26.38s-.12.55-.26.55c-.15 0-.27-.17-.27-.38zm48.55.11c.1-.14.22-.26.28-.26.07 0 .12.12.12.26 0 .15-.12.27-.28.27-.15 0-.2-.12-.12-.27zm2.52-1.85c0-1.08.11-1.85.27-1.85.16 0 .25.75.23 1.85-.02 1.02-.14 1.85-.27 1.85s-.23-.83-.23-1.85zm-3.49-1.05a7.57 7.57 0 0 1-.06-1.83c.29-.3.4.32.32 1.86l-.08 1.68zm-45.46.4c0-.23.12-.4.26-.4.15 0 .27.17.27.4 0 .2-.12.39-.27.39-.14 0-.26-.18-.26-.4zm.81-1.55c0-1.13.08-1.74.25-1.63.32.2.32 2.17 0 2.9-.16.37-.23-.01-.25-1.27zm43.48-.51c.04-.7.16-1.34.25-1.44.25-.24.17 1.25-.1 2.04-.18.5-.22.37-.15-.6zm-48.03-.91c-.05-.55-.04-2.8.04-4.98.16-4.9.48-3.44.41 1.91-.05 3.66-.26 5.1-.45 3.07zm-1.55.18c0-.36-.08-.93-.17-1.25-.09-.33-.04-.6.1-.6.39 0 .64 1.56.34 2.08-.21.36-.26.33-.27-.23zm2.39-3.2c0-2.8.08-3.68.28-3.33.29.48.15 6.7-.14 7-.08.08-.15-1.57-.14-3.66zm.96 3.3c-.27-.28-.2-1.16.09-1.16.14 0 .26.3.26.67 0 .69-.06.77-.35.48zm1.97-2.15c.02-1.02.06-1.13.23-.6.31.96.31 1.86 0 1.86-.14 0-.25-.57-.23-1.26zm.76-3.25c0-2.85.1-4.2.28-4.08.33.2.3 8.32-.04 8.32-.13 0-.24-1.9-.24-4.24zm-6.35.8c0-.43.1-.79.24-.79.28 0 .59 1.06.4 1.37-.3.48-.64.17-.64-.58zm5.63-.4c0-.57.05-.78.12-.45.06.33.06.8 0 1.06-.07.25-.13-.02-.12-.6zm-2.19-.24c0-.23.12-.41.27-.41.14 0 .26.1.26.25 0 .13-.12.32-.26.4-.15.1-.27-.01-.27-.24zm56.23-.43c-.73-.1-2.66-.21-4.29-.22-1.62-.02-3.03-.14-3.12-.28-.26-.43 1-.59 3.47-.44 1.3.08 2.65.16 3.01.17 2.88.14 3.97.33 3.97.68 0 .41-.83.44-3.04.1zM61.9 51.73c-.03-.73-.1-1.12-.17-.86-.07.25-.26.46-.43.46-.22 0-.29-.56-.22-1.87.06-1.44.17-1.84.44-1.74.2.08.42 0 .49-.18.07-.17.13-.03.15.32 0 .35-.2.8-.45.98-.41.32-.42.36-.02.36.34.01.46.33.53 1.48.05.8 0 1.67-.09 1.92-.1.26-.2-.1-.23-.87zm-.76.5c.01-.3.08-.37.16-.16.08.2.07.42-.02.51-.09.09-.15-.07-.14-.35zm4.29-1.3c0-.73.05-1 .11-.59.06.4.06 1 0 1.32-.06.33-.11 0-.11-.73zm-1.95-2.14c-.02-3-.46-4.77-.5-1.98-.02 2.75-.27 1.7-.45-1.96-.13-2.68-.1-3.34.17-3.18.2.13.29.56.21 1.16-.06.53-.03 1.26.08 1.62.26.88.32-.4.3-5.95-.02-3 .04-3.97.2-3.31.27 1 .4 15.83.16 16.08-.08.08-.16-1.03-.17-2.48zM19.1 50.54c0-.37.06-.52.14-.34.07.19.07.48 0 .67-.08.18-.14.03-.14-.33zm-4.78-1.22c.01-.3.07-.37.16-.16.07.2.07.42-.02.51-.1.09-.15-.07-.14-.35zm4.67.07c-.27-.68-.24-2.3.04-2.3.34 0 .47.8.3 1.86-.11.72-.19.82-.34.44zm45.39-.7c0-.66.05-.93.11-.6.06.33.06.86 0 1.19-.06.33-.11.06-.11-.6zm2.01.2c-.01-.48-.07-1.46-.12-2.2-.05-.72 0-2.39.12-3.7.2-2.23.22-2.09.26 2.19.02 2.5-.02 4.56-.1 4.56-.07 0-.14-.39-.16-.86zm-54.54-.07c-.07-.37-.02-.67.1-.67.13 0 .23.11.23.25 0 .13.07.43.16.66.09.23.04.42-.1.42s-.32-.3-.39-.66zm49.32-1.99c0-.36.06-.51.13-.33.08.18.08.48 0 .66-.07.18-.13.04-.13-.33zm.49 0c0-.14.12-.26.26-.26.15 0 .27.12.27.26 0 .15-.12.27-.27.27a.27.27 0 0 1-.26-.27zm-.98-1.52c-.46-.46-.5-.6-.18-.6.34 0 .38-.22.23-1.3-.22-1.6.26-2.82.55-1.41.1.47.29.79.42.7.13-.08.17-.37.08-.65-.09-.29-.03-.51.12-.51.18 0 .29.72.29 1.88 0 1.53-.07 1.85-.38 1.73-.23-.08-.42.04-.47.3-.07.4-.15.38-.66-.14zm-43.42-.2c0-.44.06-.58.13-.32.07.25.06.61 0 .79-.08.18-.14-.03-.13-.47zm46.95-3.1c-.24-5.28-.21-7.08.1-7.08.16 0 .26 1.98.26 5.42 0 2.98-.04 5.42-.1 5.42-.04 0-.16-1.7-.26-3.77zm1.22 2.84c0-.59.06-.8.12-.46.06.33.06.8 0 1.06-.07.25-.12-.02-.12-.6zm-2.92-4.9c0-.5.06-.72.12-.46.07.25.07.67 0 .93-.06.25-.12.04-.12-.47zm-48.23-.2l-.1-.62c-.05-.24.01-.6.14-.8.16-.24.24-.04.24.63 0 .55-.06 1-.13 1s-.14-.1-.15-.2zm51.13-.72c0-.44.07-.59.14-.33.06.26.06.62-.01.8-.08.17-.13-.04-.13-.47zm.75.11c0-.15.11-.2.26-.11.15.09.26.21.26.28 0 .06-.11.11-.26.11-.15 0-.26-.12-.26-.28zm-5.2-1.28c.03-1.14.13-1.45.5-1.5.32-.05.46.1.44.5-.01.4-.07.46-.18.18-.1-.24-.29.13-.48.93l-.33 1.32zm-45.85.35c.01-.3.08-.37.16-.16.08.2.07.42-.02.5-.09.1-.15-.06-.14-.34zm51.24.27c-.1-.11-.2-.45-.2-.74 0-.4.09-.46.3-.25.15.16.24.5.2.74-.06.24-.19.36-.3.25zm-52.32-1.42c0-.29.12-.59.27-.68.15-.1.26.13.26.51s-.12.68-.26.68c-.15 0-.27-.23-.27-.51zm52.14-1.4c0-.7.1-1.26.25-1.26.32 0 .32 1.24 0 1.98-.17.4-.23.22-.25-.73zm-51.8-.6c0-.58.05-.8.11-.46.07.33.07.8 0 1.06-.07.25-.12-.02-.12-.6zm46.45-.22c-.11-1.57-.09-2.08.09-2.2.1-.06.13-.29.05-.5-.09-.22-.02-.39.14-.39.18 0 .31.65.34 1.65l.04 1.66.18-1.59.17-1.59.05 1.73c.04 1.56-.01 1.74-.49 1.77-.37.03-.54-.13-.57-.54zm1.68-.31c0-.44.07-.58.14-.33.06.26.06.62-.01.8-.08.18-.13-.04-.13-.47zm-48.3-.84a.73.73 0 0 1-.17-.45c0-.17.13-.15.32.04.17.17.25.37.17.45-.07.08-.21.06-.31-.04zm49.84-1.8c0-1.9.38-1.9.45 0 .04.8-.05 1.45-.2 1.45-.14 0-.25-.66-.25-1.46zm-49.2-3.51c-.01-2.42-.41-3.5-.5-1.35-.08 2.02-.3 1.4-.27-.73.02-1.15.09-1.81.15-1.47.07.37.26.56.47.47.47-.17.83 3.9.44 4.86-.21.52-.27.14-.29-1.78zm-2.3-4.28c-.17-.85-.48-1.06-.71-.49-.08.19-.15-.34-.16-1.17-.01-1.26-.1-1.53-.55-1.67-.49-.16-.53-.4-.53-3.16 0-2.8.04-3 .55-3.14.3-.08.52-.3.5-.5-.03-.19-.04-.62-.02-.97.03-.53.13-.6.7-.46.62.16.65.12.65-1 0-1.03-.07-1.18-.52-1.15-.38.03-.53.23-.53.7 0 .89-.47.4-.7-.73-.14-.74-.09-.89.4-1.01.7-.19.74-.62.05-.62-.4 0-.5-.16-.44-.71.09-.77.69-1.2.69-.5 0 .23.12.42.26.42.15 0 .27.21.27.48a2 2 0 0 0 .38.99c.48.62.57 3.86.11 3.75-.16-.03-.33.18-.38.47-.27 1.54.06 5.24.44 5 .13-.07.24.04.24.26 0 .21-.1.46-.23.54-.13.08-.3.44-.37.81-.1.56-.04.65.37.52.45-.14.48 0 .39 1.9-.1 2.14-.56 2.91-.86 1.44zm-.89-6.22c0-.07-.12-.2-.26-.29-.15-.09-.27-.03-.27.12 0 .16.12.28.27.28.14 0 .26-.05.26-.11zm.27-1.21a.27.27 0 0 0-.27-.27.27.27 0 0 0-.26.27c0 .14.12.26.26.26.15 0 .27-.12.27-.26zm.17-3.24c-.07-.18-.13-.04-.13.33 0 .36.06.51.13.33s.07-.48 0-.66zm3.86 10.38c0-.5.05-.72.12-.46.06.25.06.67 0 .93-.07.25-.12.04-.12-.47zm-1.18-1.65c-.06-.91 0-1.77.1-1.9.13-.14.22.6.22 1.65 0 1.05-.05 1.9-.1 1.9-.07 0-.16-.74-.22-1.65zm1.18-.73c0-.5.05-.72.12-.46.06.25.06.67 0 .92-.07.26-.12.05-.12-.46zm3.62.46c-.2-.88-.2-3.63 0-3.63.17 0 .28.73.28 1.85 0 1.02-.06 1.85-.13 1.85s-.14-.03-.15-.07zm-5.8-1.25c0-.58.12-1.06.26-1.06.15 0 .27.48.27 1.06 0 .58-.12 1.06-.27 1.06-.14 0-.26-.48-.26-1.06zm1.88-1.84c-.02-.9.04-1.1.28-.87.22.22.23.54.02 1.17l-.28.88zm-1.83-.41c0-.44.06-.58.13-.33.07.26.06.62 0 .8-.08.18-.14-.03-.13-.47zm.8-.4c0-.5.06-.72.12-.46.07.25.07.67 0 .92-.06.26-.12.05-.12-.46zm4.7-1.32c0-.58.12-1.06.27-1.06.14 0 .26.48.26 1.06 0 .58-.12 1.06-.26 1.06-.15 0-.27-.48-.27-1.06zm-3.7.4c0-.22.12-.4.26-.4.15 0 .27.18.27.4 0 .21-.12.4-.27.4-.14 0-.26-.19-.26-.4zm-1.06-2.37c0-.52.05-.94.1-.94.22 0 .33 1.62.12 1.75-.12.07-.22-.3-.22-.81zm2.18-2c0-.5.05-.72.12-.46.07.25.07.67 0 .92-.07.26-.12.05-.12-.46zm-2.9-1.85c0-.66.05-.92.12-.6.06.33.06.87 0 1.2-.07.32-.12.05-.12-.6zm4.63-.54c-.06-.45-.02-.87.1-.94.13-.08.23.28.23.8 0 1.15-.17 1.22-.33.14zm.85.55c0-.13.12-.32.27-.4.14-.1.26.01.26.24 0 .23-.12.41-.26.41-.15 0-.27-.1-.27-.25zM14.63 9.4c0-.87.05-1.2.11-.72s.06 1.19 0 1.59c-.06.4-.1 0-.1-.87zm-.93-.28c-.24-.23.1-1.18.35-1.02.3.18.31 1.17.02 1.17a.6.6 0 0 1-.37-.15zm5.61-.38c0-.14.12-.26.27-.26.14 0 .26.12.26.26 0 .15-.12.27-.26.27a.27.27 0 0 1-.27-.27zm-4.74-2c.02-.31.08-.38.16-.16.08.19.07.41-.02.5-.09.09-.15-.07-.14-.35zm3.69.03c0-.22.12-.41.26-.41.15 0 .27.11.27.25s-.12.32-.27.41c-.14.1-.26-.02-.26-.25zM13.8 5.3c0-.36.06-.51.13-.33.08.18.08.48 0 .66-.07.18-.13.04-.13-.33zm11.8-3.6c-.09-.08-1.48-.17-3.09-.2-1.75-.02-2.93-.14-2.93-.3 0-.16 1.02-.25 2.58-.24 2.8.02 4.83.3 4.83.67 0 .26-1.15.32-1.4.08zm-11.31-.35c0-.29 1.8-.7 2.02-.46.08.08.07.27-.03.43-.21.35-2 .37-2 .03z"/>
</svg>
